<svg version="1.1" id="Layer_1" xmlns="http://www.w3.org/2000/svg" xmlns:xlink="http://www.w3.org/1999/xlink" x="0px" y="0px"
	 width="100%" viewBox="0 0 201 201" enable-background="new 0 0 201 201" xml:space="preserve">
<path fill="#2DB572" opacity="1.000000" stroke="none" 
	d="
M89.000000,1.000000 
	C97.354233,1.000000 105.708466,1.000000 114.548508,1.238196 
	C115.034325,1.476393 115.123016,1.945714 114.940002,2.189837 
	C115.530525,4.145581 115.897285,6.261533 117.137512,7.509262 
	C143.201355,33.730724 169.338928,59.879253 195.584335,85.918823 
	C196.829971,87.154686 199.203232,87.254005 201.287582,87.919563 
	C201.523804,87.956512 202.000000,88.000000 202.000000,88.000000 
	C202.000000,96.354233 202.000000,104.708466 201.631851,113.715858 
	C200.453705,118.247597 199.643707,122.126167 198.511673,125.920853 
	C196.669373,124.600952 195.033585,123.481628 193.647934,122.109680 
	C185.677170,114.217743 177.828369,106.201355 169.779388,98.390854 
	C168.230392,96.887756 165.974838,96.112778 163.929504,94.607208 
	C162.112946,78.719223 155.699326,65.642578 143.898697,55.316841 
	C134.180984,46.813679 122.619003,42.762238 109.986954,40.847237 
	C108.864799,38.703316 108.042252,36.662392 106.619202,35.209709 
	C97.956512,26.366619 89.128639,17.685547 80.433357,8.873961 
	C79.083420,7.505977 78.131256,5.745477 77.348831,3.983098 
	C81.468346,2.866471 85.234169,1.933235 89.000000,1.000000 
z"/>
<path fill="#08B16F" opacity="1.000000" stroke="none" 
	d="
M104.000000,202.000000 
	C102.933434,202.000000 101.866859,202.000000 100.207352,201.612717 
	C94.741837,200.761612 89.869270,200.297791 84.914307,199.511627 
	C83.936485,198.008331 83.164856,196.703812 82.127502,195.664536 
	C57.180935,170.671570 32.214687,145.698196 7.207815,120.765610 
	C6.071749,119.632919 4.522577,118.914566 3.091069,117.580093 
	C2.676819,114.426094 2.368719,111.690834 1.987365,108.965828 
	C1.708091,106.970238 1.332604,104.988121 1.000000,103.000000 
	C1.000000,101.933434 1.000000,100.866859 1.375277,99.227524 
	C1.889092,96.437408 2.027629,94.220055 2.484938,92.089851 
	C17.438627,106.854095 32.047047,121.557861 46.746662,136.169891 
	C48.335224,137.748978 50.452358,138.796341 52.294586,140.489288 
	C50.820568,146.339417 49.376278,151.790604 47.853783,157.536942 
	C56.140762,155.469070 63.751968,153.569824 71.662125,151.901550 
	C86.041283,166.322235 100.141014,180.492706 114.172905,194.730026 
	C115.651276,196.230057 116.730408,198.123535 117.577477,199.918015 
	C115.094833,200.333649 113.031715,200.680618 110.963509,200.993912 
	C108.644745,201.345169 106.321365,201.665955 104.000000,202.000000 
z"/>
<path fill="#FFFFFF" opacity="1.000000" stroke="none" 
	d="
M1.000000,103.468658 
	C1.332604,104.988121 1.708091,106.970238 1.987365,108.965828 
	C2.368719,111.690834 2.676819,114.426094 3.020879,117.991920 
	C6.244467,138.644806 15.463046,155.497787 28.772057,170.222092 
	C37.649788,180.043869 48.458374,187.500397 60.535744,192.630447 
	C68.307159,195.931503 76.817535,197.492859 84.996704,199.833969 
	C89.869270,200.297791 94.741837,200.761612 99.807205,201.612717 
	C67.073067,202.000000 34.146133,202.000000 1.000000,202.000000 
	C1.000000,169.312759 1.000000,136.625046 1.000000,103.468658 
z"/>
<path fill="#FFFFFF" opacity="1.000000" stroke="none" 
	d="
M2.166167,92.002708 
	C2.027629,94.220055 1.889092,96.437408 1.375277,98.827377 
	C1.000000,66.410339 1.000000,33.820683 1.000000,1.000000 
	C30.020485,1.000000 59.041584,1.000000 88.531342,1.000000 
	C85.234169,1.933235 81.468346,2.866471 76.955902,3.916938 
	C64.553604,6.756700 53.939663,11.776086 43.876637,18.764843 
	C36.727924,25.583519 29.838131,32.218407 22.629753,39.007919 
	C15.927304,48.446804 9.837706,57.883751 6.526029,69.133240 
	C5.808262,70.882668 5.326587,72.418694 5.063353,73.991280 
	C4.059448,79.988701 3.125960,85.997902 2.166167,92.002708 
z"/>
<path fill="#FFFFFF" opacity="1.000000" stroke="none" 
	d="
M104.468658,202.000000 
	C106.321365,201.665955 108.644745,201.345169 110.963509,200.993912 
	C113.031715,200.680618 115.094833,200.333649 117.996071,199.991699 
	C128.481750,198.688446 137.618179,195.825562 146.491913,191.026154 
	C153.252686,186.702408 159.651413,182.405212 166.363678,177.968231 
	C172.823654,170.899231 178.970093,163.970016 185.423935,156.880783 
	C186.120651,156.019119 186.452942,155.277954 186.907867,154.621811 
	C192.931259,145.934341 196.975830,136.426193 198.833710,126.004738 
	C199.643707,122.126167 200.453705,118.247597 201.631851,114.184509 
	C202.000000,143.264175 202.000000,172.528366 202.000000,202.000000 
	C169.646072,202.000000 137.291687,202.000000 104.468658,202.000000 
z"/>
<path fill="#FFFFFF" opacity="1.000000" stroke="none" 
	d="
M202.000000,87.531342 
	C202.000000,88.000000 201.523804,87.956512 201.268051,87.494949 
	C201.009201,86.367104 201.094009,85.686798 200.990295,85.036560 
	C197.544907,63.437359 187.952637,44.788918 172.633286,29.420418 
	C164.138931,20.898827 154.331650,13.507853 142.763885,9.502709 
	C133.757736,6.384482 124.351463,4.421896 115.123016,1.945714 
	C115.123016,1.945714 115.034325,1.476393 115.017166,1.238196 
	C143.926910,1.000000 172.853806,1.000000 202.000000,1.000000 
	C202.000000,29.687189 202.000000,58.374935 202.000000,87.531342 
z"/>
<path fill="#F9FCFB" opacity="1.000000" stroke="none" 
	d="
M71.363174,151.670578 
	C63.751968,153.569824 56.140762,155.469070 47.853783,157.536942 
	C49.376278,151.790604 50.820568,146.339417 52.515244,140.192734 
	C53.303394,137.431305 53.992393,135.390564 54.341843,133.293259 
	C54.811451,130.474747 55.804859,127.421936 55.171349,124.809723 
	C53.943878,119.748367 51.737587,114.924385 49.974419,109.582169 
	C47.513287,96.189995 49.911678,83.928459 55.625557,71.887253 
	C60.600815,63.643749 66.176147,56.366611 74.380844,51.030125 
	C85.418297,43.833752 97.335648,41.156670 110.009041,41.222092 
	C122.619003,42.762238 134.180984,46.813679 143.898697,55.316841 
	C155.699326,65.642578 162.112946,78.719223 163.861450,95.060806 
	C164.492859,108.202721 160.950409,119.416168 154.712158,130.188553 
	C148.597809,136.176956 142.757065,141.972290 136.571167,147.857574 
	C128.483154,150.670166 120.740250,153.392838 112.532791,156.065369 
	C102.711746,156.625549 93.427376,155.931702 84.947487,151.812912 
	C80.125648,149.470901 75.916336,149.481064 71.363174,151.670578 
M116.776428,144.042969 
	C124.940796,142.042511 132.287292,138.539551 138.815811,132.099548 
	C147.657852,123.223732 152.457611,112.588425 152.959213,99.157784 
	C152.859100,73.676613 132.802261,52.687855 106.186989,52.264362 
	C93.264282,52.991615 81.817459,57.045338 72.396713,67.314812 
	C66.740578,73.552933 62.821243,80.688255 60.935364,89.830200 
	C58.618858,101.355270 60.493950,112.143242 66.261520,122.396088 
	C67.173691,124.017616 67.256432,126.462082 66.897346,128.370789 
	C66.060440,132.819290 64.720772,137.173218 63.428661,142.169144 
	C67.250481,141.201340 70.226357,140.735870 72.979790,139.686646 
	C77.762978,137.863968 81.860237,138.259201 86.575912,140.739243 
	C95.783730,145.581787 105.794983,146.476120 116.776428,144.042969 
z"/>
<path fill="#32B673" opacity="1.000000" stroke="none" 
	d="
M114.940002,2.189837 
	C124.351463,4.421896 133.757736,6.384482 142.763885,9.502709 
	C154.331650,13.507853 164.138931,20.898827 172.633286,29.420418 
	C187.952637,44.788918 197.544907,63.437359 200.990295,85.036560 
	C201.094009,85.686798 201.009201,86.367104 201.031830,87.458008 
	C199.203232,87.254005 196.829971,87.154686 195.584335,85.918823 
	C169.338928,59.879253 143.201355,33.730724 117.137512,7.509262 
	C115.897285,6.261533 115.530525,4.145581 114.940002,2.189837 
z"/>
<path fill="#24B472" opacity="1.000000" stroke="none" 
	d="
M109.986954,40.847237 
	C97.335648,41.156670 85.418297,43.833752 74.351616,50.663269 
	C73.309273,49.080009 72.906357,47.520641 71.928825,46.525974 
	C62.720345,37.156025 53.413803,27.882444 44.135559,18.581057 
	C53.939663,11.776086 64.553604,6.756700 76.602219,4.100329 
	C78.131256,5.745477 79.083420,7.505977 80.433357,8.873961 
	C89.128639,17.685547 97.956512,26.366619 106.619202,35.209709 
	C108.042252,36.662392 108.864799,38.703316 109.986954,40.847237 
z"/>
<path fill="#24B472" opacity="1.000000" stroke="none" 
	d="
M154.985733,129.995499 
	C160.950409,119.416168 164.492859,108.202721 163.977188,95.455505 
	C165.974838,96.112778 168.230392,96.887756 169.779388,98.390854 
	C177.828369,106.201355 185.677170,114.217743 193.647934,122.109680 
	C195.033585,123.481628 196.669373,124.600952 198.511658,125.920853 
	C196.975830,136.426193 192.931259,145.934341 186.907867,154.621811 
	C186.452942,155.277954 186.120651,156.019119 185.082092,156.803146 
	C183.001251,155.802963 181.429062,154.863068 180.161469,153.614044 
	C173.330215,146.882797 166.614548,140.033936 159.759048,133.327820 
	C158.390717,131.989319 156.588104,131.094772 154.985733,129.995499 
z"/>
<path fill="#03B06E" opacity="1.000000" stroke="none" 
	d="
M84.914307,199.511627 
	C76.817535,197.492859 68.307159,195.931503 60.535744,192.630447 
	C48.458374,187.500397 37.649788,180.043869 28.772057,170.222092 
	C15.463046,155.497787 6.244467,138.644806 3.095625,118.415054 
	C4.522577,118.914566 6.071749,119.632919 7.207815,120.765610 
	C32.214687,145.698196 57.180935,170.671570 82.127502,195.664536 
	C83.164856,196.703812 83.936485,198.008331 84.914307,199.511627 
z"/>
<path fill="#0FB270" opacity="1.000000" stroke="none" 
	d="
M71.662125,151.901550 
	C75.916336,149.481064 80.125648,149.470901 84.947487,151.812912 
	C93.427376,155.931702 102.711746,156.625549 112.558922,156.417694 
	C113.418022,157.729492 113.550171,158.876389 114.190041,159.512787 
	C124.798912,170.064041 135.471497,180.551208 146.129852,191.052704 
	C137.618179,195.825562 128.481750,198.688446 118.413345,199.908173 
	C116.730408,198.123535 115.651276,196.230057 114.172905,194.730026 
	C100.141014,180.492706 86.041283,166.322235 71.662125,151.901550 
z"/>
<path fill="#0CB16F" opacity="1.000000" stroke="none" 
	d="
M49.936924,110.002037 
	C51.737587,114.924385 53.943878,119.748367 55.171349,124.809723 
	C55.804859,127.421936 54.811451,130.474747 54.341843,133.293259 
	C53.992393,135.390564 53.303394,137.431305 52.544964,139.793793 
	C50.452358,138.796341 48.335224,137.748978 46.746662,136.169891 
	C32.047047,121.557861 17.438627,106.854095 2.484938,92.089851 
	C3.125960,85.997902 4.059448,79.988701 5.063353,73.991280 
	C5.326587,72.418694 5.808262,70.882668 6.821390,69.310516 
	C19.296204,81.354774 31.083490,93.474144 43.039127,105.425095 
	C44.952038,107.337250 47.618713,108.495346 49.936924,110.002037 
z"/>
<path fill="#13B270" opacity="1.000000" stroke="none" 
	d="
M49.974419,109.582169 
	C47.618713,108.495346 44.952038,107.337250 43.039127,105.425095 
	C31.083490,93.474144 19.296204,81.354774 7.157799,69.113899 
	C9.837706,57.883751 15.927304,48.446804 22.704727,39.362495 
	C24.225960,41.367672 25.074755,43.445271 26.527637,44.932880 
	C34.540981,53.137775 42.665012,61.236134 50.851204,69.268997 
	C52.095894,70.490372 53.863483,71.178864 55.389214,72.113838 
	C49.911678,83.928459 47.513287,96.189995 49.974419,109.582169 
z"/>
<path fill="#1CB371" opacity="1.000000" stroke="none" 
	d="
M55.625557,71.887253 
	C53.863483,71.178864 52.095894,70.490372 50.851204,69.268997 
	C42.665012,61.236134 34.540981,53.137775 26.527637,44.932880 
	C25.074755,43.445271 24.225960,41.367672 23.023312,39.207870 
	C29.838131,32.218407 36.727924,25.583519 43.876637,18.764843 
	C53.413803,27.882444 62.720345,37.156025 71.928825,46.525974 
	C72.906357,47.520641 73.309273,49.080009 74.007980,50.744259 
	C66.176147,56.366611 60.600815,63.643749 55.625557,71.887253 
z"/>
<path fill="#1CB371" opacity="1.000000" stroke="none" 
	d="
M154.712158,130.188553 
	C156.588104,131.094772 158.390717,131.989319 159.759048,133.327820 
	C166.614548,140.033936 173.330215,146.882797 180.161469,153.614044 
	C181.429062,154.863068 183.001251,155.802963 184.774689,156.963165 
	C178.970093,163.970016 172.823654,170.899231 166.134918,177.720657 
	C156.642120,168.812103 147.668427,160.034622 138.777328,151.174255 
	C137.898315,150.298279 137.524567,148.915298 136.916306,147.767639 
	C142.757065,141.972290 148.597809,136.176956 154.712158,130.188553 
z"/>
<path fill="#15B270" opacity="1.000000" stroke="none" 
	d="
M136.571167,147.857574 
	C137.524567,148.915298 137.898315,150.298279 138.777328,151.174255 
	C147.668427,160.034622 156.642120,168.812103 165.821381,177.860428 
	C159.651413,182.405212 153.252686,186.702408 146.491913,191.026154 
	C135.471497,180.551208 124.798912,170.064041 114.190041,159.512787 
	C113.550171,158.876389 113.418022,157.729492 113.023483,156.467834 
	C120.740250,153.392838 128.483154,150.670166 136.571167,147.857574 
z"/>
<path fill="#22B472" opacity="1.000000" stroke="none" 
	d="
M152.785065,100.006447 
	C152.457611,112.588425 147.657852,123.223732 138.324280,131.929596 
	C135.175919,128.375031 132.519073,124.990440 130.036957,121.321472 
	C135.234070,115.699013 135.532104,112.378952 131.299530,108.918724 
	C124.815971,103.618279 119.931976,103.564240 115.987106,109.094116 
	C114.260208,111.514847 112.437233,112.130478 110.194565,110.476578 
	C105.567932,107.064583 100.873306,103.684029 96.647598,99.809616 
	C93.628304,97.041321 91.900253,93.886017 95.607719,89.594269 
	C98.456726,86.296265 95.704781,77.484680 91.602280,74.105949 
	C87.810951,70.983490 84.866745,73.445114 81.764755,75.509895 
	C78.713768,72.499535 75.850105,69.747147 72.986435,66.994766 
	C81.817459,57.045338 93.264282,52.991615 106.617180,52.680828 
	C110.514595,57.047615 113.790337,61.187805 117.484474,64.913109 
	C129.167160,76.694351 141.006393,88.320381 152.785065,100.006447 
z"/>
<path fill="#13B270" opacity="1.000000" stroke="none" 
	d="
M116.000183,144.005859 
	C105.794983,146.476120 95.783730,145.581787 86.575912,140.739243 
	C81.860237,138.259201 77.762978,137.863968 72.979790,139.686646 
	C70.226357,140.735870 67.250481,141.201340 63.428661,142.169144 
	C64.720772,137.173218 66.060440,132.819290 66.897346,128.370789 
	C67.256432,126.462082 67.173691,124.017616 66.261520,122.396088 
	C60.493950,112.143242 58.618858,101.355270 61.410736,89.444977 
	C63.394341,90.010338 65.140030,90.721764 66.374763,91.947792 
	C81.962723,107.425598 97.509575,122.945404 112.955322,138.564850 
	C114.363914,139.989258 115.003502,142.174118 116.000183,144.005859 
z"/>
<path fill="#19B371" opacity="1.000000" stroke="none" 
	d="
M116.388306,144.024414 
	C115.003502,142.174118 114.363914,139.989258 112.955322,138.564850 
	C97.509575,122.945404 81.962723,107.425598 66.374763,91.947792 
	C65.140030,90.721764 63.394341,90.010338 61.538731,89.033005 
	C62.821243,80.688255 66.740578,73.552933 72.691574,67.154785 
	C75.850105,69.747147 78.713768,72.499535 81.613792,75.853973 
	C77.663994,82.315018 78.009979,88.384941 81.083229,94.395012 
	C87.948418,107.820610 98.272362,117.430214 112.610489,122.548431 
	C118.527092,124.660446 124.273331,124.888039 129.862228,121.605843 
	C132.519073,124.990440 135.175919,128.375031 138.011841,132.072800 
	C132.287292,138.539551 124.940796,142.042511 116.388306,144.024414 
z"/>
<path fill="#29B573" opacity="1.000000" stroke="none" 
	d="
M152.872131,99.582115 
	C141.006393,88.320381 129.167160,76.694351 117.484474,64.913109 
	C113.790337,61.187805 110.514595,57.047615 107.014664,52.765335 
	C132.802261,52.687855 152.859100,73.676613 152.872131,99.582115 
z"/>
<path fill="#F9FCFB" opacity="1.000000" stroke="none" 
	d="
M130.036957,121.321472 
	C124.273331,124.888039 118.527092,124.660446 112.610489,122.548431 
	C98.272362,117.430214 87.948418,107.820610 81.083229,94.395012 
	C78.009979,88.384941 77.663994,82.315018 81.801109,76.111954 
	C84.866745,73.445114 87.810951,70.983490 91.602280,74.105949 
	C95.704781,77.484680 98.456726,86.296265 95.607719,89.594269 
	C91.900253,93.886017 93.628304,97.041321 96.647598,99.809616 
	C100.873306,103.684029 105.567932,107.064583 110.194565,110.476578 
	C112.437233,112.130478 114.260208,111.514847 115.987106,109.094116 
	C119.931976,103.564240 124.815971,103.618279 131.299530,108.918724 
	C135.532104,112.378952 135.234070,115.699013 130.036957,121.321472 
z"/>
</svg>