<?xml version="1.0" standalone="no"?>
<!DOCTYPE svg PUBLIC "-//W3C//DTD SVG 20010904//EN"
 "http://www.w3.org/TR/2001/REC-SVG-20010904/DTD/svg10.dtd">
<svg version="1.0" xmlns="http://www.w3.org/2000/svg"
 width="225.000000pt" height="225.000000pt" viewBox="0 0 225.000000 225.000000"
 preserveAspectRatio="xMidYMid meet">

<g transform="translate(0.000000,225.000000) scale(0.100000,-0.100000)"
fill="#000000" stroke="none">
<path d="M530 2244 c-147 -17 -265 -51 -318 -93 -18 -15 -30 -32 -27 -40 3 -8
0 -11 -9 -8 -8 3 -20 -2 -28 -11 -11 -13 -11 -14 0 -8 11 7 12 4 3 -13 -13
-24 -7 -43 12 -35 7 2 17 -6 22 -18 6 -13 24 -32 42 -43 18 -11 32 -25 33 -31
0 -5 8 -19 18 -30 9 -10 23 -31 31 -46 8 -15 17 -26 20 -23 4 2 13 -1 21 -6
12 -7 13 -11 2 -18 -11 -7 -11 -11 1 -22 7 -8 16 -21 20 -29 5 -13 6 -13 7 0
1 8 25 35 54 60 29 25 51 49 48 54 -3 5 0 6 6 2 6 -4 29 2 50 13 104 53 137
56 582 56 298 0 430 -4 468 -13 174 -40 298 -161 350 -337 11 -38 15 -136 19
-403 7 -440 -2 -544 -54 -651 -42 -87 -81 -134 -141 -172 -24 -15 -39 -29 -35
-31 4 -3 2 -3 -5 -2 -7 2 -33 -6 -59 -18 -42 -20 -44 -23 -27 -35 10 -7 28
-13 40 -13 22 0 53 -28 44 -39 -3 -3 9 -15 27 -26 18 -11 32 -26 33 -32 0 -7
9 -13 20 -13 13 0 20 -7 20 -20 0 -11 5 -20 10 -20 6 0 10 -9 10 -20 0 -14 7
-20 23 -21 21 -1 21 -1 -3 -9 -14 -4 -18 -9 -10 -9 13 -1 13 -2 0 -11 -13 -8
-13 -10 2 -10 9 0 20 5 23 10 4 6 11 7 18 3 13 -8 -46 -31 -82 -32 -13 -1 -21
-4 -18 -7 10 -11 126 16 185 42 37 16 77 47 123 94 56 58 73 84 100 153 29 76
32 95 41 262 5 99 7 419 5 710 -5 575 -5 576 -64 701 -50 107 -170 200 -308
240 -54 15 -125 17 -685 19 -344 2 -641 1 -660 -1z m-140 -439 c-7 -9 -15 -13
-18 -10 -3 2 1 11 8 20 7 9 15 13 18 10 3 -2 -1 -11 -8 -20z m1290 -1495 c0
-5 -7 -10 -16 -10 -8 0 -12 5 -9 10 3 6 10 10 16 10 5 0 9 -4 9 -10z"/>
<path d="M109 2048 c-12 -23 -12 -23 10 -4 23 21 26 26 11 26 -5 0 -15 -10
-21 -22z"/>
<path d="M120 2026 c-9 -12 -8 -15 8 -13 12 0 18 6 15 14 -6 16 -8 16 -23 -1z"/>
<path d="M715 1785 c-88 -16 -133 -36 -166 -72 -43 -46 -65 -103 -39 -103 5 0
7 8 4 18 -5 16 -5 16 6 0 6 -10 15 -18 20 -18 16 0 60 -47 60 -64 0 -9 8 -16
20 -16 15 0 20 -7 20 -25 0 -14 5 -25 10 -25 6 0 10 -7 10 -15 0 -8 9 -15 20
-15 13 0 20 -7 20 -19 0 -11 5 -21 11 -23 6 -2 12 -16 12 -31 0 -15 4 -24 9
-21 6 4 7 -3 3 -17 -5 -18 -1 -15 17 11 80 116 191 187 324 205 99 13 248 -31
323 -97 122 -106 182 -278 147 -419 -30 -119 -88 -208 -181 -278 -16 -12 -22
-20 -12 -17 11 4 16 2 12 -5 -4 -5 -15 -7 -25 -4 -30 9 -33 -13 -6 -39 14 -13
26 -28 26 -35 0 -6 5 -11 11 -11 18 0 69 -58 69 -79 0 -11 9 -25 19 -31 11 -5
21 -20 23 -32 2 -17 9 -23 26 -22 12 0 22 -1 22 -3 0 -2 -10 -8 -22 -14 -19
-8 -16 -8 14 -4 135 20 205 72 244 180 21 58 26 98 36 264 18 343 -1 611 -52
727 -36 84 -95 126 -205 150 -84 18 -732 18 -830 -1z m-162 -106 c-4 -15 -8
-17 -14 -8 -6 11 4 28 18 29 0 0 -1 -9 -4 -21z m1088 -38 c81 -82 -19 -219
-122 -166 -37 20 -63 75 -54 116 17 76 120 105 176 50z m-908 -206 c-3 -9 -8
-14 -10 -11 -3 3 -2 9 2 15 9 16 15 13 8 -4z m37 0 c-6 -8 -9 -19 -5 -25 3 -5
-1 -20 -9 -32 -14 -19 -16 -20 -17 -5 -1 9 -2 21 -3 27 -1 13 26 50 37 50 5 0
4 -7 -3 -15z"/>
<path d="M740 1399 c0 -5 5 -7 10 -4 6 3 10 8 10 11 0 2 -4 4 -10 4 -5 0 -10
-5 -10 -11z"/>
<path d="M334 1761 c0 -15 3 -17 13 -9 7 6 10 14 7 19 -9 15 -20 10 -20 -10z"/>
<path d="M1004 1370 c-77 -38 -129 -114 -137 -200 l-6 -55 11 48 c8 36 14 47
27 45 9 -2 17 -13 19 -25 2 -13 21 -41 43 -63 21 -21 39 -46 39 -55 0 -8 6
-15 14 -15 8 0 35 -19 60 -42 42 -38 46 -45 46 -89 0 -40 4 -49 21 -54 25 -8
84 2 119 20 40 21 95 87 115 138 23 62 17 174 -13 233 -24 47 -81 100 -128
120 -52 22 -181 18 -230 -6z m-94 -140 c0 -5 -5 -10 -11 -10 -5 0 -7 5 -4 10
3 6 8 10 11 10 2 0 4 -4 4 -10z m278 -357 c-10 -2 -26 -2 -35 0 -10 3 -2 5 17
5 19 0 27 -2 18 -5z"/>
<path d="M716 1295 c-9 -26 -7 -32 5 -12 6 10 9 21 6 23 -2 3 -7 -2 -11 -11z"/>
<path d="M1035 891 c3 -5 -1 -12 -7 -14 -8 -4 -7 -6 4 -6 23 -1 32 15 12 23
-8 3 -13 2 -9 -3z"/>
<path d="M1265 710 c3 -5 8 -10 11 -10 2 0 4 5 4 10 0 6 -5 10 -11 10 -5 0 -7
-4 -4 -10z"/>
<path d="M1220 700 c-13 -8 -12 -10 3 -10 9 0 17 5 17 10 0 12 -1 12 -20 0z"/>
<path d="M1258 663 c7 -3 16 -2 19 1 4 3 -2 6 -13 5 -11 0 -14 -3 -6 -6z"/>
<path d="M1448 453 c7 -3 16 -2 19 1 4 3 -2 6 -13 5 -11 0 -14 -3 -6 -6z"/>
<path d="M1570 300 c-12 -8 -11 -10 8 -10 12 0 22 5 22 10 0 13 -11 13 -30 0z"/>
<path d="M1648 263 c6 -2 18 -2 25 0 6 3 1 5 -13 5 -14 0 -19 -2 -12 -5z"/>
<path d="M1768 63 c6 -2 18 -2 25 0 6 3 1 5 -13 5 -14 0 -19 -2 -12 -5z"/>
</g>
</svg>
