<?xml version="1.0" standalone="no"?>
<!DOCTYPE svg PUBLIC "-//W3C//DTD SVG 20010904//EN"
 "http://www.w3.org/TR/2001/REC-SVG-20010904/DTD/svg10.dtd">
<svg version="1.0" xmlns="http://www.w3.org/2000/svg"
 width="201.000000pt" height="201.000000pt" viewBox="0 0 201.000000 201.000000"
 preserveAspectRatio="xMidYMid meet">

<g transform="translate(0.000000,201.000000) scale(0.100000,-0.100000)"
fill="#000000" stroke="none">
<path d="M880 1990 c-338 -47 -633 -265 -775 -573 -146 -317 -113 -694 86
-982 68 -98 205 -228 305 -288 83 -49 237 -109 312 -122 l42 -7 0 346 0 346
-125 0 -125 0 0 150 0 150 125 0 125 0 0 135 c0 210 27 294 120 378 81 73 148
90 324 85 78 -2 147 -7 154 -12 8 -5 12 -44 12 -132 l0 -124 -93 0 c-164 0
-197 -36 -197 -217 l0 -113 133 0 c74 0 136 -2 139 -5 3 -3 -31 -245 -41 -292
-1 -2 -53 -3 -116 -3 l-115 0 0 -346 0 -346 43 7 c23 4 84 22 136 41 287 102
525 351 611 639 27 91 29 103 40 202 51 481 -269 938 -743 1058 -112 28 -275
39 -377 25z"/>
</g>
</svg>
