<svg version="1.1" id="Layer_1" xmlns="http://www.w3.org/2000/svg" xmlns:xlink="http://www.w3.org/1999/xlink" x="0px" y="0px"
	 width="100%" viewBox="0 0 201 201" enable-background="new 0 0 201 201" xml:space="preserve">
<path fill="#FFFFFF" opacity="1.000000" stroke="none" 
	d="
M103.000000,1.000000 
	C135.926926,1.000000 168.853867,1.000000 202.000000,1.000000 
	C202.000000,33.687233 202.000000,66.374962 201.763245,99.507782 
	C201.526474,99.952881 201.054047,99.895844 201.033707,99.488571 
	C200.954788,97.722115 200.896225,96.362938 200.898727,94.579277 
	C200.585968,91.439766 200.212143,88.724739 199.898590,85.602341 
	C199.255173,81.800682 198.551468,78.406380 197.771118,74.653427 
	C195.812668,69.497978 193.930862,64.701180 192.007935,59.548805 
	C186.905075,51.545013 182.228989,43.604015 176.694901,36.314384 
	C167.436401,24.118837 155.076447,15.803485 140.813171,9.616390 
	C136.387482,7.938384 132.187668,6.545494 127.592819,5.097522 
	C123.795280,4.415411 120.392792,3.788383 116.589729,3.075389 
	C113.458107,2.713799 110.727058,2.438175 107.593033,2.103830 
	C105.836044,2.006802 104.482025,1.968495 103.092529,1.698121 
	C103.057045,1.466053 103.000000,1.000000 103.000000,1.000000 
z"/>
<path fill="#FFFFFF" opacity="1.000000" stroke="none" 
	d="
M202.000000,104.000000 
	C202.000000,136.589661 202.000000,169.179306 202.000000,202.000000 
	C172.979507,202.000000 143.958420,202.000000 114.626862,201.661896 
	C115.543571,201.161118 116.770729,200.998413 118.397575,200.902405 
	C122.529526,199.924423 126.261787,198.879745 130.356628,197.894073 
	C132.477356,197.246933 134.235535,196.540787 136.357544,195.898941 
	C138.851440,194.989334 140.981491,194.015427 143.449310,193.015366 
	C144.904099,192.348511 146.021088,191.707779 147.469299,191.044128 
	C148.890961,190.389175 149.981430,189.757141 151.366028,188.990982 
	C152.792053,187.953323 153.923935,187.049789 155.391006,186.080139 
	C157.169556,185.049667 158.612930,184.085342 160.353699,182.976624 
	C162.119461,181.591980 163.587784,180.351746 165.353638,178.966431 
	C167.149033,177.573730 168.646912,176.326111 170.445618,174.939270 
	C172.201157,172.884750 173.655884,170.969437 175.403412,168.915878 
	C177.259598,167.128983 178.822968,165.480316 180.622070,163.556427 
	C182.853561,160.188141 184.849335,157.095108 186.996460,153.701965 
	C187.806793,152.284256 188.465805,151.166641 189.408386,149.884247 
	C190.149490,148.520203 190.606995,147.320908 191.366699,145.944839 
	C192.390106,143.847061 193.111343,141.926071 193.991119,139.695129 
	C194.711685,137.923279 195.273727,136.461380 196.012329,134.667694 
	C196.496277,132.905075 196.803665,131.474274 197.400940,129.849762 
	C198.072983,128.103241 198.455109,126.550385 198.917816,124.617203 
	C199.279709,122.491798 199.561005,120.746742 199.908966,118.593979 
	C200.263809,115.459824 200.551987,112.733368 200.903748,109.603790 
	C201.311554,107.467110 201.655777,105.733551 202.000000,104.000000 
z"/>
<path fill="#FFFFFF" opacity="1.000000" stroke="none" 
	d="
M1.000000,89.000000 
	C1.000000,59.735817 1.000000,30.471632 1.000000,1.000000 
	C33.353931,1.000000 65.708305,1.000000 98.333740,1.330464 
	C97.066536,1.828431 95.528282,1.995933 93.559555,2.104316 
	C90.085396,2.416286 87.041702,2.787375 83.610107,3.098146 
	C81.481293,3.413233 79.740387,3.788639 77.648125,4.114944 
	C75.849617,4.674063 74.402466,5.282282 72.593903,5.932259 
	C71.143860,6.276115 70.055229,6.578213 68.617798,6.940015 
	C66.834465,7.626010 65.399956,8.252302 63.601421,8.927427 
	C61.490993,9.705666 59.744579,10.435071 57.671432,11.209543 
	C55.884491,12.128486 54.424286,13.002363 52.619095,13.936131 
	C50.516945,15.050995 48.759781,16.105970 46.670601,17.210529 
	C43.876621,19.135712 41.414658,21.011309 38.649918,23.036240 
	C35.854359,25.436901 33.361580,27.688227 30.572403,30.083473 
	C28.499449,32.449730 26.722897,34.672066 24.647194,37.040268 
	C23.214563,38.755363 22.081085,40.324593 20.641438,42.046154 
	C19.182268,44.118305 18.029266,46.038128 16.585957,48.092682 
	C15.827739,49.133564 15.359830,50.039711 14.588369,51.094650 
	C13.485372,52.809120 12.685925,54.374798 11.598396,56.098267 
	C10.849850,57.455330 10.389386,58.654602 9.611751,60.025162 
	C8.809564,61.775291 8.324549,63.354130 7.546124,65.094810 
	C7.151750,66.136513 7.050785,67.016365 6.634938,68.089729 
	C5.840731,70.173744 5.361405,72.064247 4.561551,74.168839 
	C3.548829,77.923088 2.856635,81.463249 2.098054,85.373398 
	C1.687778,86.828911 1.343889,87.914459 1.000000,89.000000 
z"/>
<path fill="#FFFFFF" opacity="1.000000" stroke="none" 
	d="
M88.000000,202.000000 
	C59.073097,202.000000 30.146193,202.000000 1.000000,202.000000 
	C1.000000,173.312805 1.000000,144.625061 1.299705,115.574287 
	C1.788482,115.807953 1.977554,116.404655 2.098851,117.406105 
	C2.634838,120.542603 3.238600,123.274353 3.907370,126.404617 
	C4.695070,129.535782 5.417762,132.268417 6.186107,135.362183 
	C7.782657,139.162552 9.333555,142.601791 10.941792,146.401245 
	C17.560938,159.947525 26.658638,171.224838 38.075333,180.363037 
	C43.785141,184.933304 50.653584,188.056030 57.321571,191.994080 
	C61.096695,193.714340 64.548241,195.274002 68.379723,196.913452 
	C71.474159,197.694397 74.188652,198.395538 76.923439,199.077621 
	C76.943733,199.058548 76.889519,199.058411 76.973099,199.308594 
	C77.362579,199.661224 77.668480,199.763672 78.381302,199.923538 
	C81.191612,200.265167 83.595024,200.549362 86.306938,200.907654 
	C87.076965,201.321182 87.538483,201.660583 88.000000,202.000000 
z"/>
<path fill="#695CA6" opacity="1.000000" stroke="none" 
	d="
M0.999999,106.000000 
	C1.000000,102.969406 1.000000,99.938812 1.344661,96.487900 
	C3.101551,97.187080 4.636495,98.183083 5.906731,99.445450 
	C16.774109,110.245361 27.552019,121.135765 38.477859,131.875839 
	C39.902660,133.276413 42.014484,133.978088 43.956619,135.340790 
	C48.122696,147.515182 56.338448,155.075119 68.002174,159.485626 
	C69.056450,161.446350 69.870827,163.280884 71.190170,164.616623 
	C81.769356,175.327423 92.489830,185.898941 103.033417,196.644226 
	C104.410950,198.048111 105.029762,200.196472 106.000000,202.000000 
	C103.299988,202.000000 100.599968,202.000000 97.448441,201.631088 
	C96.086533,199.763397 95.431480,198.010117 94.228371,196.803116 
	C64.876091,167.355270 35.481060,137.949921 6.012535,108.618477 
	C4.736812,107.348679 2.688446,106.855141 0.999999,106.000000 
z"/>
<path fill="#655CA6" opacity="1.000000" stroke="none" 
	d="
M0.999999,106.416664 
	C2.688446,106.855141 4.736812,107.348679 6.012535,108.618477 
	C35.481060,137.949921 64.876091,167.355270 94.228371,196.803116 
	C95.431480,198.010117 96.086533,199.763397 96.998459,201.631088 
	C95.611107,202.000000 94.222221,202.000000 92.382881,201.655334 
	C91.168610,200.254227 90.532013,199.070770 89.622498,198.159760 
	C61.456028,169.948090 33.271378,141.754532 5.042192,113.605659 
	C3.932297,112.498924 2.357937,111.857986 0.999999,111.000000 
	C1.000000,109.611107 1.000000,108.222221 0.999999,106.416664 
z"/>
<path fill="#6F5AA4" opacity="1.000000" stroke="none" 
	d="
M106.444168,202.000000 
	C105.029762,200.196472 104.410950,198.048111 103.033417,196.644226 
	C92.489830,185.898941 81.769356,175.327423 71.190170,164.616623 
	C69.870827,163.280884 69.056450,161.446350 68.417061,159.490234 
	C73.216705,159.596237 77.607399,160.054962 82.006874,160.847137 
	C83.025284,162.635284 83.847374,164.275513 85.074181,165.515305 
	C94.994003,175.540222 105.035919,185.444733 114.909996,195.514053 
	C116.301353,196.932907 116.986084,199.044678 117.997887,200.835724 
	C116.770729,200.998413 115.543571,201.161118 114.158203,201.661896 
	C111.629440,202.000000 109.258888,202.000000 106.444168,202.000000 
z"/>
<path fill="#6F5AA4" opacity="1.000000" stroke="none" 
	d="
M43.808090,135.003479 
	C42.014484,133.978088 39.902660,133.276413 38.477859,131.875839 
	C27.552019,121.135765 16.774109,110.245361 5.906731,99.445450 
	C4.636495,98.183083 3.101551,97.187080 1.344661,96.033798 
	C1.000000,93.958336 1.000000,91.916664 1.000000,89.437500 
	C1.343889,87.914459 1.687778,86.828911 2.435454,85.415695 
	C5.311860,86.977737 8.010513,88.636581 10.217613,90.797493 
	C19.324528,99.713860 28.250181,108.815163 37.330166,117.759445 
	C38.674641,119.083817 40.489380,119.930794 42.171478,121.422096 
	C42.773636,126.231529 43.290863,130.617508 43.808090,135.003479 
z"/>
<path fill="#635DA6" opacity="1.000000" stroke="none" 
	d="
M0.999999,111.399994 
	C2.357937,111.857986 3.932297,112.498924 5.042192,113.605659 
	C33.271378,141.754532 61.456028,169.948090 89.622498,198.159760 
	C90.532013,199.070770 91.168610,200.254227 91.966217,201.655334 
	C90.933327,202.000000 89.866661,202.000000 88.399994,202.000000 
	C87.538483,201.660583 87.076965,201.321182 86.265610,200.574860 
	C85.240479,199.242096 84.674171,198.207443 83.874092,197.406204 
	C57.877274,171.371002 31.865366,145.350861 5.813833,119.370453 
	C4.809457,118.368813 3.391737,117.781647 2.166625,117.001350 
	C1.977554,116.404655 1.788482,115.807953 1.299705,115.105629 
	C1.000000,113.933327 1.000000,112.866661 0.999999,111.399994 
z"/>
<path fill="#FBB961" opacity="1.000000" stroke="none" 
	d="
M202.000000,103.600006 
	C201.655777,105.733551 201.311554,107.467110 200.564270,109.559692 
	C198.280609,108.618492 196.162918,107.559029 194.558029,105.978775 
	C184.513535,96.088600 174.626785,86.038055 164.566269,76.164459 
	C163.143616,74.768227 161.058609,74.046852 159.178345,72.629166 
	C157.683990,68.235344 156.291473,64.225471 155.092255,59.927444 
	C157.036591,60.439144 159.186127,60.833527 160.476715,62.101891 
	C172.676956,74.092033 184.700806,86.261566 196.884094,98.269211 
	C197.860260,99.231293 199.645050,99.372932 201.054047,99.895844 
	C201.054047,99.895844 201.526474,99.952881 201.763245,99.976440 
	C202.000000,101.066673 202.000000,102.133339 202.000000,103.600006 
z"/>
<path fill="#FBB961" opacity="1.000000" stroke="none" 
	d="
M93.990021,2.163437 
	C95.528282,1.995933 97.066536,1.828431 98.802399,1.330464 
	C100.066673,1.000000 101.133339,1.000000 102.600006,1.000000 
	C103.000000,1.000000 103.057045,1.466053 102.829910,1.880811 
	C103.433716,3.728945 104.007278,5.417082 105.135147,6.556561 
	C117.365013,18.912363 129.731888,31.132971 141.909195,43.539833 
	C143.365784,45.023872 143.920425,47.393166 144.545746,49.234436 
	C139.758514,47.271599 135.318665,45.426456 130.894348,43.201012 
	C129.801605,41.242016 128.890854,39.468018 127.553642,38.115707 
	C117.425301,27.872963 107.168472,17.756937 97.079651,7.475843 
	C95.689186,6.058881 95.002518,3.951293 93.990021,2.163437 
z"/>
<path fill="#FAC772" opacity="1.000000" stroke="none" 
	d="
M197.847763,75.012085 
	C198.551468,78.406380 199.255173,81.800682 199.546356,85.593971 
	C197.640167,85.046165 195.910599,84.336128 194.687592,83.117645 
	C169.657837,58.180649 144.668533,33.202900 119.752182,8.152700 
	C118.462448,6.856048 117.894363,4.841613 116.990303,3.161355 
	C120.392792,3.788383 123.795280,4.415411 127.602036,5.449836 
	C128.946457,7.347073 129.649338,9.073060 130.862076,10.291590 
	C151.477127,31.004953 172.134613,51.676311 192.869598,72.269493 
	C194.162064,73.553131 196.171753,74.114616 197.847763,75.012085 
z"/>
<path fill="#FAC16B" opacity="1.000000" stroke="none" 
	d="
M116.589729,3.075389 
	C117.894363,4.841613 118.462448,6.856048 119.752182,8.152700 
	C144.668533,33.202900 169.657837,58.180649 194.687592,83.117645 
	C195.910599,84.336128 197.640167,85.046165 199.486084,86.001335 
	C200.212143,88.724739 200.585968,91.439766 200.567581,94.536484 
	C199.015228,94.010460 197.745636,93.212372 196.710922,92.179092 
	C168.021164,63.529167 139.347687,34.862892 110.713539,6.157411 
	C109.595940,5.037023 108.892456,3.503547 107.996010,2.162552 
	C110.727058,2.438175 113.458107,2.713799 116.589729,3.075389 
z"/>
<path fill="#FABD66" opacity="1.000000" stroke="none" 
	d="
M107.593033,2.103831 
	C108.892456,3.503547 109.595940,5.037023 110.713539,6.157411 
	C139.347687,34.862892 168.021164,63.529167 196.710922,92.179092 
	C197.745636,93.212372 199.015228,94.010460 200.506500,94.960953 
	C200.896225,96.362938 200.954788,97.722115 201.033707,99.488571 
	C199.645050,99.372932 197.860260,99.231293 196.884094,98.269211 
	C184.700806,86.261566 172.676956,74.092033 160.476715,62.101891 
	C159.186127,60.833527 157.036591,60.439144 154.830902,59.709854 
	C151.215210,56.304321 148.054169,52.828228 144.893127,49.352135 
	C143.920425,47.393166 143.365784,45.023872 141.909195,43.539833 
	C129.731888,31.132971 117.365013,18.912363 105.135147,6.556561 
	C104.007278,5.417082 103.433716,3.728945 102.865387,2.112879 
	C104.482025,1.968495 105.836044,2.006802 107.593033,2.103831 
z"/>
<path fill="#FACC7A" opacity="1.000000" stroke="none" 
	d="
M197.771118,74.653427 
	C196.171753,74.114616 194.162064,73.553131 192.869598,72.269493 
	C172.134613,51.676311 151.477127,31.004953 130.862076,10.291590 
	C129.649338,9.073060 128.946457,7.347073 127.997086,5.504918 
	C132.187668,6.545494 136.387482,7.938384 140.830292,9.970144 
	C141.252655,11.068636 141.309814,11.649858 141.628860,11.970448 
	C157.482269,27.900576 173.346130,43.820435 189.286743,59.663029 
	C189.790192,60.163387 191.109879,59.842445 192.049042,59.904385 
	C193.930862,64.701180 195.812668,69.497978 197.771118,74.653427 
z"/>
<path fill="#F9D281" opacity="1.000000" stroke="none" 
	d="
M192.007935,59.548801 
	C191.109879,59.842445 189.790192,60.163387 189.286743,59.663029 
	C173.346130,43.820435 157.482269,27.900576 141.628860,11.970448 
	C141.309814,11.649858 141.252655,11.068636 141.056183,10.255260 
	C155.076447,15.803485 167.436401,24.118837 176.694901,36.314384 
	C182.228989,43.604015 186.905075,51.545013 192.007935,59.548801 
z"/>
<path fill="#7758A2" opacity="1.000000" stroke="none" 
	d="
M118.397575,200.902405 
	C116.986084,199.044678 116.301353,196.932907 114.909996,195.514053 
	C105.035919,185.444733 94.994003,175.540222 85.074181,165.515305 
	C83.847374,164.275513 83.025284,162.635284 82.463150,160.754547 
	C87.272049,160.390167 91.633476,160.451813 96.003494,160.846985 
	C97.027000,162.639221 97.855644,164.282043 99.086487,165.527313 
	C108.330612,174.879822 117.679024,184.129227 126.922745,193.482117 
	C128.154068,194.727982 128.980255,196.374237 129.994049,197.835083 
	C126.261787,198.879745 122.529526,199.924423 118.397575,200.902405 
z"/>
<path fill="#FBB35A" opacity="1.000000" stroke="none" 
	d="
M159.280182,73.013107 
	C161.058609,74.046852 163.143616,74.768227 164.566269,76.164459 
	C174.626785,86.038055 184.513535,96.088600 194.558029,105.978775 
	C196.162918,107.559029 198.280609,108.618492 200.500702,109.962814 
	C200.551987,112.733368 200.263809,115.459824 199.576660,118.552071 
	C197.786270,117.779861 196.289062,116.748299 195.020203,115.487015 
	C184.916916,105.443993 174.884125,95.329865 164.751114,85.317101 
	C163.401428,83.983437 161.610626,83.096184 159.958954,81.582298 
	C159.689255,78.445969 159.484726,75.729538 159.280182,73.013107 
z"/>
<path fill="#ED5E84" opacity="1.000000" stroke="none" 
	d="
M186.845123,154.002075 
	C184.849335,157.095108 182.853561,160.188141 180.473297,163.175400 
	C178.894333,161.715240 177.772797,160.287292 176.493164,159.018829 
	C169.966400,152.548889 163.398773,146.120148 156.891586,139.316559 
	C157.706497,136.304749 158.475250,133.653366 159.594116,131.007538 
	C161.415741,131.961945 163.093689,132.698685 164.323669,133.895706 
	C170.231293,139.645004 175.950928,145.588501 181.899612,151.293793 
	C183.209274,152.549866 185.179230,153.117447 186.845123,154.002075 
z"/>
<path fill="#8356A1" opacity="1.000000" stroke="none" 
	d="
M130.356628,197.894073 
	C128.980255,196.374237 128.154068,194.727982 126.922745,193.482117 
	C117.679024,184.129227 108.330612,174.879822 99.086487,165.527313 
	C97.855644,164.282043 97.027000,162.639221 96.373787,160.766968 
	C97.227501,160.441177 97.719513,160.528900 98.356094,160.707962 
	C98.926987,160.741470 99.353333,160.683640 100.187355,160.497467 
	C101.728050,160.417191 102.861061,160.465271 104.002716,160.846893 
	C105.017342,162.630219 105.837753,164.263153 107.059074,165.500320 
	C115.652763,174.205566 124.355560,182.803085 132.948837,191.508728 
	C134.170654,192.746490 134.988754,194.382797 135.993698,195.834641 
	C134.235535,196.540787 132.477356,197.246933 130.356628,197.894073 
z"/>
<path fill="#EA598E" opacity="1.000000" stroke="none" 
	d="
M156.845444,139.677002 
	C163.398773,146.120148 169.966400,152.548889 176.493164,159.018829 
	C177.772797,160.287292 178.894333,161.715240 180.237579,163.450653 
	C178.822968,165.480316 177.259598,167.128983 175.094299,168.771057 
	C167.229065,161.310089 159.965759,153.855713 152.836914,146.118530 
	C154.262711,143.782806 155.554077,141.729904 156.845444,139.677002 
z"/>
<path fill="#F9A65C" opacity="1.000000" stroke="none" 
	d="
M160.024109,82.002197 
	C161.610626,83.096184 163.401428,83.983437 164.751114,85.317101 
	C174.884125,95.329865 184.916916,105.443993 195.020203,115.487015 
	C196.289062,116.748299 197.786270,117.779861 199.509979,118.959778 
	C199.561005,120.746742 199.279709,122.491798 198.585999,124.576416 
	C196.780899,123.775963 195.282959,122.741890 194.012268,121.479134 
	C184.248093,111.776024 174.556015,102.000206 164.761948,92.327560 
	C163.409424,90.991821 161.619781,90.098709 159.966278,88.566856 
	C159.941391,86.089417 159.982758,84.045815 160.024109,82.002197 
z"/>
<path fill="#F5866B" opacity="1.000000" stroke="none" 
	d="
M195.835770,134.999496 
	C195.273727,136.461380 194.711685,137.923279 193.637985,139.688416 
	C191.524826,138.934753 189.702179,138.103134 188.358170,136.783890 
	C180.322983,128.896759 172.428925,120.865906 164.403656,112.968491 
	C163.168610,111.753113 161.500183,110.978111 159.962891,109.565987 
	C159.939148,107.087662 159.984695,105.042801 160.393646,103.002289 
	C162.365860,104.032249 164.213486,104.814789 165.544754,106.122841 
	C174.254593,114.680862 182.826614,123.379044 191.516907,131.957230 
	C192.753067,133.177444 194.386307,133.995377 195.835770,134.999496 
z"/>
<path fill="#E65396" opacity="1.000000" stroke="none" 
	d="
M152.702469,146.401337 
	C159.965759,153.855713 167.229065,161.310089 174.801483,168.909286 
	C173.655884,170.969437 172.201157,172.884750 170.131714,174.790131 
	C166.657867,172.333389 163.661392,170.027786 160.969513,167.409042 
	C156.051575,162.624725 151.313858,157.655106 146.718872,152.496628 
	C148.858658,150.287415 150.780563,148.344376 152.702469,146.401337 
z"/>
<path fill="#F79365" opacity="1.000000" stroke="none" 
	d="
M196.012329,134.667694 
	C194.386307,133.995377 192.753067,133.177444 191.516907,131.957230 
	C182.826614,123.379044 174.254593,114.680862 165.544754,106.122841 
	C164.213486,104.814789 162.365860,104.032249 160.325989,102.562256 
	C159.940948,99.745285 159.986969,97.372696 160.375488,95.035416 
	C162.236053,96.304489 163.861221,97.428574 165.255157,98.789497 
	C175.899170,109.181488 186.498093,119.619652 197.111053,130.043457 
	C196.803665,131.474274 196.496277,132.905075 196.012329,134.667694 
z"/>
<path fill="#9055A0" opacity="1.000000" stroke="none" 
	d="
M136.357544,195.898941 
	C134.988754,194.382797 134.170654,192.746490 132.948837,191.508728 
	C124.355560,182.803085 115.652763,174.205566 107.059074,165.500320 
	C105.837753,164.263153 105.017342,162.630219 104.432823,160.753433 
	C106.901009,160.388275 108.947739,160.450134 111.003380,160.845581 
	C111.437782,162.044724 111.673706,163.098160 112.317299,163.747589 
	C121.537460,173.051544 130.794647,182.319168 140.108078,191.529633 
	C140.866180,192.279373 142.099182,192.548859 143.111526,193.041504 
	C140.981491,194.015427 138.851440,194.989334 136.357544,195.898941 
z"/>
<path fill="#9E559F" opacity="1.000000" stroke="none" 
	d="
M143.449310,193.015366 
	C142.099182,192.548859 140.866180,192.279373 140.108078,191.529633 
	C130.794647,182.319168 121.537460,173.051544 112.317299,163.747589 
	C111.673706,163.098160 111.437782,162.044724 111.433434,160.750763 
	C113.901787,160.385040 115.948997,160.447739 118.005440,160.844086 
	C118.215828,161.793335 118.235435,162.592224 118.644760,162.997650 
	C128.116943,172.379959 137.631424,181.719559 147.138077,191.067062 
	C146.021088,191.707779 144.904099,192.348511 143.449310,193.015366 
z"/>
<path fill="#F37A71" opacity="1.000000" stroke="none" 
	d="
M160.032196,109.999443 
	C161.500183,110.978111 163.168610,111.753113 164.403656,112.968491 
	C172.428925,120.865906 180.322983,128.896759 188.358170,136.783890 
	C189.702179,138.103134 191.524826,138.934753 193.479462,139.998383 
	C193.111343,141.926071 192.390106,143.847061 191.181335,145.660400 
	C182.057220,137.129761 173.449692,128.676575 164.754166,120.314903 
	C163.384293,118.997635 161.616211,118.094513 159.961578,116.566605 
	C159.938019,114.088692 159.985107,112.044067 160.032196,109.999443 
z"/>
<path fill="#F89D61" opacity="1.000000" stroke="none" 
	d="
M197.400940,129.849762 
	C186.498093,119.619652 175.899170,109.181488 165.255157,98.789497 
	C163.861221,97.428574 162.236053,96.304489 160.308868,94.610565 
	C159.943985,92.433846 159.988251,90.717270 160.032501,89.000687 
	C161.619781,90.098709 163.409424,90.991821 164.761948,92.327560 
	C174.556015,102.000206 184.248093,111.776024 194.012268,121.479134 
	C195.282959,122.741890 196.780899,123.775963 198.505402,124.956749 
	C198.455109,126.550385 198.072983,128.103241 197.400940,129.849762 
z"/>
<path fill="#F0677C" opacity="1.000000" stroke="none" 
	d="
M186.996460,153.701965 
	C185.179230,153.117447 183.209274,152.549866 181.899612,151.293793 
	C175.950928,145.588501 170.231293,139.645004 164.323669,133.895706 
	C163.093689,132.698685 161.415741,131.961945 159.547516,130.618866 
	C159.441605,128.149124 159.732422,126.073586 160.387085,124.002426 
	C162.370239,125.040985 164.210297,125.844414 165.572525,127.147377 
	C173.485535,134.716171 181.286179,142.402466 189.124817,150.049026 
	C188.465805,151.166641 187.806793,152.284256 186.996460,153.701965 
z"/>
<path fill="#CF529C" opacity="1.000000" stroke="none" 
	d="
M165.056122,179.111496 
	C163.587784,180.351746 162.119461,181.591980 160.209595,182.666306 
	C151.704910,174.592117 143.641785,166.683823 135.855576,158.548920 
	C138.421524,157.288361 140.710526,156.254440 143.044571,155.550476 
	C144.346893,157.374222 145.525253,158.943848 146.875061,160.348755 
	C152.908707,166.628662 158.991257,172.861588 165.056122,179.111496 
z"/>
<path fill="#A8549E" opacity="1.000000" stroke="none" 
	d="
M147.469299,191.044128 
	C137.631424,181.719559 128.116943,172.379959 118.644760,162.997650 
	C118.235435,162.592224 118.215828,161.793335 118.433914,160.749420 
	C120.896095,160.365005 122.939034,160.408890 125.043739,160.773987 
	C126.461578,162.951920 127.630539,164.987564 129.205780,166.634674 
	C136.432327,174.190933 143.772507,181.638535 151.071899,189.125122 
	C149.981430,189.757141 148.890961,190.389175 147.469299,191.044128 
z"/>
<path fill="#C2529D" opacity="1.000000" stroke="none" 
	d="
M135.578644,158.775543 
	C143.641785,166.683823 151.704910,174.592117 159.912170,182.810699 
	C158.612930,184.085342 157.169556,185.049667 155.248154,185.767654 
	C147.812546,178.482773 140.819885,171.478256 133.930679,164.373444 
	C132.729034,163.134171 131.963226,161.472321 131.319870,159.885559 
	C132.955307,159.435501 134.266968,159.105515 135.578644,158.775543 
z"/>
<path fill="#B561A5" opacity="1.000000" stroke="none" 
	d="
M130.996109,160.005646 
	C131.963226,161.472321 132.729034,163.134171 133.930679,164.373444 
	C140.819885,171.478256 147.812546,178.482773 154.912964,185.833801 
	C153.923935,187.049789 152.792053,187.953323 151.366028,188.990997 
	C143.772507,181.638535 136.432327,174.190933 129.205780,166.634674 
	C127.630539,164.987564 126.461578,162.951920 125.456039,160.637848 
	C127.536423,160.122208 129.266266,160.063919 130.996109,160.005646 
z"/>
<path fill="#F17076" opacity="1.000000" stroke="none" 
	d="
M189.408386,149.884247 
	C181.286179,142.402466 173.485535,134.716171 165.572525,127.147377 
	C164.210297,125.844414 162.370239,125.040985 160.317230,123.569229 
	C159.933121,121.087730 159.982681,119.043816 160.032242,116.999901 
	C161.616211,118.094513 163.384293,118.997635 164.754166,120.314903 
	C173.449692,128.676575 182.057220,137.129761 190.879150,145.837189 
	C190.606995,147.320908 190.149490,148.520203 189.408386,149.884247 
z"/>
<path fill="#DD539C" opacity="1.000000" stroke="none" 
	d="
M165.353638,178.966431 
	C158.991257,172.861588 152.908707,166.628662 146.875061,160.348755 
	C145.525253,158.943848 144.346893,157.374222 143.288712,155.353027 
	C144.492218,154.138031 145.496597,153.450409 146.500977,152.762787 
	C151.313858,157.655106 156.051575,162.624725 160.969513,167.409042 
	C163.661392,170.027786 166.657867,172.333389 169.830902,174.929352 
	C168.646912,176.326111 167.149033,177.573730 165.353638,178.966431 
z"/>
<path fill="#7758A2" opacity="1.000000" stroke="none" 
	d="
M42.086552,120.998642 
	C40.489380,119.930794 38.674641,119.083817 37.330166,117.759445 
	C28.250181,108.815163 19.324528,99.713860 10.217613,90.797493 
	C8.010513,88.636581 5.311860,86.977737 2.501841,85.045715 
	C2.856635,81.463249 3.548829,77.923088 4.914108,74.210678 
	C7.003644,75.137833 8.551533,76.104652 9.815515,77.357826 
	C19.003681,86.467430 28.102867,95.666977 37.318756,104.748199 
	C38.666103,106.075859 40.483345,106.926659 42.167038,108.455360 
	C42.196125,112.941292 42.141338,116.969963 42.086552,120.998642 
z"/>
<path fill="#FBB35A" opacity="1.000000" stroke="none" 
	d="
M93.559555,2.104317 
	C95.002518,3.951293 95.689186,6.058881 97.079651,7.475843 
	C107.168472,17.756937 117.425301,27.872963 127.553642,38.115707 
	C128.890854,39.468018 129.801605,41.242016 130.447357,43.134689 
	C126.655632,43.259731 123.326424,43.070793 119.993500,42.523911 
	C118.943848,40.561489 118.132523,38.725597 116.814568,37.389427 
	C106.938736,27.377115 96.939590,17.486515 87.048111,7.489479 
	C85.823364,6.251660 85.004799,4.611946 83.998016,3.158464 
	C87.041702,2.787375 90.085396,2.416286 93.559555,2.104317 
z"/>
<path fill="#E95790" opacity="1.000000" stroke="none" 
	d="
M30.868803,29.939552 
	C33.361580,27.688227 35.854359,25.436901 38.792801,23.346323 
	C45.545658,29.891466 51.893848,36.236317 58.124493,42.694565 
	C59.329983,43.944088 60.076183,45.636719 60.833496,47.385941 
	C58.084957,49.416046 55.537167,51.185165 52.841518,52.659477 
	C45.418709,44.889629 38.143757,37.414589 30.868803,29.939552 
z"/>
<path fill="#ED5E84" opacity="1.000000" stroke="none" 
	d="
M61.034248,47.124954 
	C60.076183,45.636719 59.329983,43.944088 58.124493,42.694565 
	C51.893848,36.236317 45.545658,29.891466 39.095581,23.196987 
	C41.414658,21.011309 43.876621,19.135712 46.711479,17.543243 
	C53.713253,24.707645 60.404465,31.530785 66.920204,38.517567 
	C68.279381,39.975002 68.990067,42.037220 69.654427,43.959137 
	C66.550919,45.106678 63.792583,46.115818 61.034248,47.124954 
z"/>
<path fill="#F9A65C" opacity="1.000000" stroke="none" 
	d="
M83.610107,3.098145 
	C85.004799,4.611946 85.823364,6.251660 87.048111,7.489479 
	C96.939590,17.486515 106.938736,27.377115 116.814568,37.389427 
	C118.132523,38.725597 118.943848,40.561489 119.559402,42.586334 
	C117.086220,42.962830 115.043427,42.918945 112.960602,42.538658 
	C111.786484,40.807178 110.761635,39.303585 109.500870,38.034332 
	C100.038155,28.507893 90.480751,19.074835 81.086815,9.481493 
	C79.697021,8.062198 79.011070,5.953687 77.999481,4.164046 
	C79.740387,3.788639 81.481293,3.413233 83.610107,3.098145 
z"/>
<path fill="#E25199" opacity="1.000000" stroke="none" 
	d="
M30.572403,30.083473 
	C38.143757,37.414589 45.418709,44.889629 52.697281,52.960125 
	C50.858768,55.825577 49.016644,58.095566 47.031170,60.037338 
	C39.573994,52.104214 32.260170,44.499310 24.946342,36.894402 
	C26.722897,34.672066 28.499449,32.449730 30.572403,30.083473 
z"/>
<path fill="#F37C70" opacity="1.000000" stroke="none" 
	d="
M57.998169,11.164476 
	C59.744579,10.435071 61.490993,9.705666 63.640305,9.281296 
	C65.142006,11.004169 66.108353,12.553120 67.361076,13.818581 
	C75.535912,22.076536 83.801521,30.244743 91.958488,38.520119 
	C93.183151,39.762554 93.994499,41.412392 94.556549,42.938900 
	C91.742783,42.960537 89.369514,42.917042 86.957138,42.537251 
	C85.784859,40.806797 84.759117,39.306221 83.500870,38.035961 
	C76.039719,30.503569 68.494392,23.054350 61.057873,15.497943 
	C59.833923,14.254263 59.008026,12.618850 57.998169,11.164476 
z"/>
<path fill="#F0677C" opacity="1.000000" stroke="none" 
	d="
M69.999603,43.820728 
	C68.990067,42.037220 68.279381,39.975002 66.920204,38.517567 
	C60.404465,31.530785 53.713253,24.707645 47.043499,17.493660 
	C48.759781,16.105970 50.516945,15.050995 52.658424,14.289911 
	C54.138527,15.998785 55.104309,17.541939 56.351871,18.807274 
	C62.863415,25.411572 69.481964,31.910580 75.973289,38.534412 
	C77.191818,39.777809 78.001617,41.421757 78.585136,42.948910 
	C75.446701,43.284878 72.723152,43.552803 69.999603,43.820728 
z"/>
<path fill="#F5896A" opacity="1.000000" stroke="none" 
	d="
M94.997047,42.873764 
	C93.994499,41.412392 93.183151,39.762554 91.958488,38.520119 
	C83.801521,30.244743 75.535912,22.076536 67.361076,13.818581 
	C66.108353,12.553120 65.142006,11.004169 64.004318,9.232462 
	C65.399956,8.252302 66.834465,7.626010 68.656464,7.293845 
	C70.138672,9.001393 71.100342,10.546679 72.349464,11.807079 
	C81.200714,20.738232 90.137428,29.584785 98.971481,38.532753 
	C100.192749,39.769779 100.998993,41.416546 101.563423,42.938614 
	C99.085342,42.960323 97.041191,42.917046 94.997047,42.873764 
z"/>
<path fill="#F17076" opacity="1.000000" stroke="none" 
	d="
M79.000023,42.880867 
	C78.001617,41.421757 77.191818,39.777809 75.973289,38.534412 
	C69.481964,31.910580 62.863415,25.411572 56.351871,18.807274 
	C55.104309,17.541939 54.138527,15.998785 53.003418,14.230021 
	C54.424286,13.002363 55.884491,12.128486 57.671432,11.209543 
	C59.008026,12.618850 59.833923,14.254263 61.057873,15.497943 
	C68.494392,23.054350 76.039719,30.503569 83.500870,38.035961 
	C84.759117,39.306221 85.784859,40.806797 86.516861,42.602798 
	C83.743805,42.963383 81.371918,42.922123 79.000023,42.880867 
z"/>
<path fill="#F79365" opacity="1.000000" stroke="none" 
	d="
M101.997360,42.873627 
	C100.998993,41.416546 100.192749,39.769779 98.971481,38.532753 
	C90.137428,29.584785 81.200714,20.738232 72.349464,11.807079 
	C71.100342,10.546679 70.138672,9.001393 69.005280,7.234141 
	C70.055229,6.578213 71.143860,6.276115 72.736755,6.242344 
	C83.713539,17.059902 94.210289,27.585316 104.628525,38.187889 
	C105.961288,39.544231 106.885101,41.302422 107.573273,42.939407 
	C105.431229,42.960781 103.714294,42.917206 101.997360,42.873627 
z"/>
<path fill="#8056A1" opacity="1.000000" stroke="none" 
	d="
M42.083160,107.998108 
	C40.483345,106.926659 38.666103,106.075859 37.318756,104.748199 
	C28.102867,95.666977 19.003681,86.467430 9.815515,77.357826 
	C8.551533,76.104652 7.003644,75.137833 5.234636,73.996597 
	C5.361405,72.064247 5.840731,70.173744 6.779318,68.398102 
	C17.725441,79.074028 28.193668,89.653786 38.733692,100.161522 
	C39.599411,101.024582 40.953430,101.397842 42.162292,102.421707 
	C42.190403,104.562523 42.136780,106.280319 42.083160,107.998108 
z"/>
<path fill="#9E559F" opacity="1.000000" stroke="none" 
	d="
M9.928921,59.853870 
	C10.389386,58.654602 10.849850,57.455330 11.916798,56.236740 
	C14.218267,57.514553 16.069502,58.652489 17.581331,60.136246 
	C24.320097,66.749893 30.923164,73.501945 37.673862,80.103165 
	C38.907303,81.309280 40.599354,82.046417 42.154984,83.432716 
	C42.179092,85.909920 42.127922,87.954453 41.727032,89.969116 
	C39.848545,88.723297 38.201180,87.628899 36.810276,86.271667 
	C27.818640,77.497696 18.882952,68.666382 9.928921,59.853870 
z"/>
<path fill="#CF529C" opacity="1.000000" stroke="none" 
	d="
M24.647192,37.040268 
	C32.260170,44.499310 39.573994,52.104214 46.965702,60.360420 
	C46.126354,62.847469 45.209126,64.683220 44.137505,66.182251 
	C42.759880,64.501678 41.571228,63.124340 40.307602,61.819611 
	C33.864929,55.167358 27.402876,48.533875 20.947605,41.893826 
	C22.081085,40.324593 23.214563,38.755363 24.647192,37.040268 
z"/>
<path fill="#8A56A1" opacity="1.000000" stroke="none" 
	d="
M42.080559,101.998688 
	C40.953430,101.397842 39.599411,101.024582 38.733692,100.161522 
	C28.193668,89.653786 17.725441,79.074028 7.094199,68.204590 
	C7.050785,67.016365 7.151750,66.136513 7.901327,65.141464 
	C9.963327,66.114403 11.510381,67.067459 12.768433,68.312531 
	C20.981115,76.440468 29.096199,84.667259 37.336800,92.766487 
	C38.679581,94.086243 40.486679,94.933563 42.159172,96.422462 
	C42.186306,98.563354 42.133430,100.281021 42.080559,101.998688 
z"/>
<path fill="#AB549E" opacity="1.000000" stroke="none" 
	d="
M42.079704,83.000038 
	C40.599354,82.046417 38.907303,81.309280 37.673862,80.103165 
	C30.923164,73.501945 24.320097,66.749893 17.581331,60.136246 
	C16.069502,58.652489 14.218267,57.514553 12.204882,56.078945 
	C12.685925,54.374798 13.485372,52.809120 14.897076,51.239731 
	C22.843433,58.494614 30.134172,65.798050 37.550999,72.971100 
	C38.910839,74.286255 40.783085,75.071594 42.410934,76.532150 
	C42.295277,78.975220 42.187492,80.987625 42.079704,83.000038 
z"/>
<path fill="#9355A0" opacity="1.000000" stroke="none" 
	d="
M42.079170,95.999237 
	C40.486679,94.933563 38.679581,94.086243 37.336800,92.766487 
	C29.096199,84.667259 20.981115,76.440468 12.768433,68.312531 
	C11.510381,67.067459 9.963327,66.114403 8.194736,64.979630 
	C8.324549,63.354130 8.809564,61.775291 9.611750,60.025162 
	C18.882952,68.666382 27.818640,77.497696 36.810276,86.271667 
	C38.201180,87.628899 39.848545,88.723297 41.804779,90.392685 
	C42.181217,92.563828 42.130192,94.281532 42.079170,95.999237 
z"/>
<path fill="#C2529D" opacity="1.000000" stroke="none" 
	d="
M20.641438,42.046154 
	C27.402876,48.533875 33.864929,55.167358 40.307602,61.819611 
	C41.571228,63.124340 42.759880,64.501678 44.113194,66.492348 
	C43.891602,68.110321 43.539928,69.081482 42.811485,70.035370 
	C40.798481,69.020531 38.917259,68.277672 37.568905,66.980797 
	C32.068138,61.690044 26.777042,56.181694 21.297094,50.868618 
	C20.052633,49.662048 18.361696,48.915977 16.876266,47.957947 
	C18.029266,46.038128 19.182268,44.118305 20.641438,42.046154 
z"/>
<path fill="#F89D61" opacity="1.000000" stroke="none" 
	d="
M107.998375,42.874451 
	C106.885101,41.302422 105.961288,39.544231 104.628525,38.187889 
	C94.210289,27.585316 83.713539,17.059902 73.098175,6.200586 
	C74.402466,5.282282 75.849617,4.674063 77.648117,4.114945 
	C79.011070,5.953687 79.697021,8.062198 81.086815,9.481493 
	C90.480751,19.074835 100.038155,28.507893 109.500870,38.034332 
	C110.761635,39.303585 111.786484,40.807178 112.546913,42.603348 
	C110.781624,42.961117 109.389999,42.917786 107.998375,42.874451 
z"/>
<path fill="#B7549E" opacity="1.000000" stroke="none" 
	d="
M16.585957,48.092682 
	C18.361696,48.915977 20.052633,49.662048 21.297094,50.868618 
	C26.777042,56.181694 32.068138,61.690044 37.568905,66.980797 
	C38.917259,68.277672 40.798481,69.020531 42.792427,70.426483 
	C42.906357,72.590408 42.662582,74.345947 42.418808,76.101494 
	C40.783085,75.071594 38.910839,74.286255 37.550999,72.971100 
	C30.134172,65.798050 22.843433,58.494614 15.200626,51.090935 
	C15.359830,50.039711 15.827739,49.133564 16.585957,48.092682 
z"/>
<path fill="#5C5EA8" opacity="1.000000" stroke="none" 
	d="
M6.140453,135.001068 
	C5.417762,132.268417 4.695070,129.535782 4.284542,126.405487 
	C6.116656,126.890823 7.910538,127.498466 9.115909,128.697662 
	C30.946091,150.416031 52.727806,172.183411 74.422050,194.037415 
	C75.675713,195.300323 76.095360,197.391159 76.903145,199.096695 
	C74.188652,198.395538 71.474159,197.694397 68.374519,196.559418 
	C67.162277,194.753174 66.570511,193.146683 65.472984,192.043228 
	C47.294823,173.766830 29.074762,155.531799 10.775283,137.377014 
	C9.600704,136.211731 7.702197,135.776123 6.140453,135.001068 
z"/>
<path fill="#605DA7" opacity="1.000000" stroke="none" 
	d="
M76.923439,199.077621 
	C76.095360,197.391159 75.675713,195.300323 74.422050,194.037415 
	C52.727806,172.183411 30.946091,150.416031 9.115909,128.697662 
	C7.910538,127.498466 6.116656,126.890823 4.219534,126.006966 
	C3.238600,123.274353 2.634838,120.542603 2.098850,117.406105 
	C3.391737,117.781647 4.809457,118.368813 5.813833,119.370453 
	C31.865366,145.350861 57.877274,171.371002 83.874092,197.406204 
	C84.674171,198.207443 85.240479,199.242096 85.957108,200.500732 
	C83.595024,200.549362 81.191612,200.265167 78.255074,199.724731 
	C77.493530,199.232224 77.216057,199.095520 76.889519,199.058411 
	C76.889519,199.058411 76.943733,199.058548 76.923439,199.077621 
z"/>
<path fill="#585FA8" opacity="1.000000" stroke="none" 
	d="
M6.186106,135.362183 
	C7.702197,135.776123 9.600704,136.211731 10.775283,137.377014 
	C29.074762,155.531799 47.294823,173.766830 65.472984,192.043228 
	C66.570511,193.146683 67.162277,194.753174 67.994576,196.479645 
	C64.548241,195.274002 61.096695,193.714340 57.280396,191.661194 
	C56.590008,190.598938 56.370102,189.924759 55.923397,189.476669 
	C42.062008,175.571426 28.193155,161.673462 14.263001,147.837265 
	C13.396736,146.976837 12.022406,146.627914 10.884453,146.041031 
	C9.333555,142.601791 7.782657,139.162552 6.186106,135.362183 
z"/>
<path fill="#5560A9" opacity="1.000000" stroke="none" 
	d="
M10.941792,146.401245 
	C12.022406,146.627914 13.396736,146.976837 14.263001,147.837265 
	C28.193155,161.673462 42.062008,175.571426 55.923397,189.476669 
	C56.370102,189.924759 56.590008,190.598938 56.956810,191.500610 
	C50.653584,188.056030 43.785141,184.933304 38.075333,180.363037 
	C26.658638,171.224838 17.560938,159.947525 10.941792,146.401245 
z"/>
<path fill="#5C5EA8" opacity="1.000000" stroke="none" 
	d="
M76.973099,199.308594 
	C77.216057,199.095520 77.493530,199.232224 77.848160,199.667297 
	C77.668480,199.763672 77.362579,199.661224 76.973099,199.308594 
z"/>
<path fill="#FCFAFB" opacity="1.000000" stroke="none" 
	d="
M42.410934,76.532150 
	C42.662582,74.345947 42.906357,72.590408 43.169189,70.443748 
	C43.539928,69.081482 43.891602,68.110321 44.267586,66.829071 
	C45.209126,64.683220 46.126354,62.847469 47.109051,60.688637 
	C49.016644,58.095566 50.858768,55.825577 52.845139,53.254936 
	C55.537167,51.185165 58.084957,49.416046 60.833496,47.385941 
	C63.792583,46.115818 66.550919,45.106678 69.654427,43.959137 
	C72.723152,43.552803 75.446701,43.284878 78.585136,42.948910 
	C81.371918,42.922123 83.743805,42.963383 86.555969,42.939091 
	C89.369514,42.917042 91.742783,42.960537 94.556549,42.938900 
	C97.041191,42.917046 99.085342,42.960323 101.563423,42.938618 
	C103.714294,42.917206 105.431229,42.960781 107.573273,42.939407 
	C109.389999,42.917786 110.781624,42.961117 112.586937,42.939758 
	C115.043427,42.918945 117.086220,42.962830 119.563110,42.944283 
	C123.326424,43.070793 126.655632,43.259731 130.431839,43.514992 
	C135.318665,45.426456 139.758514,47.271599 144.545746,49.234436 
	C148.054169,52.828228 151.215210,56.304321 154.637604,59.998001 
	C156.291473,64.225471 157.683990,68.235344 159.178345,72.629166 
	C159.484726,75.729538 159.689255,78.445969 159.958954,81.582306 
	C159.982758,84.045815 159.941391,86.089417 159.966278,88.566856 
	C159.988251,90.717270 159.943985,92.433846 159.966370,94.575272 
	C159.986969,97.372696 159.940948,99.745285 159.962585,102.557899 
	C159.984695,105.042801 159.939148,107.087662 159.962891,109.565987 
	C159.985107,112.044067 159.938019,114.088692 159.961578,116.566605 
	C159.982681,119.043816 159.933121,121.087730 159.953400,123.564850 
	C159.732422,126.073586 159.441605,128.149124 159.197388,130.613342 
	C158.475250,133.653366 157.706497,136.304749 156.891586,139.316559 
	C155.554077,141.729904 154.262711,143.782806 152.836914,146.118530 
	C150.780563,148.344376 148.858658,150.287415 146.718872,152.496628 
	C145.496597,153.450409 144.492218,154.138031 143.243683,155.023087 
	C140.710526,156.254440 138.421524,157.288361 135.855576,158.548920 
	C134.266968,159.105515 132.955307,159.435501 131.319870,159.885559 
	C129.266266,160.063919 127.536423,160.122208 125.394279,160.316635 
	C122.939034,160.408890 120.896095,160.365005 118.424683,160.415771 
	C115.948997,160.447739 113.901787,160.385040 111.424522,160.417175 
	C108.947739,160.450134 106.901009,160.388275 104.424179,160.419876 
	C102.861061,160.465271 101.728050,160.417191 99.936089,160.376007 
	C98.921936,160.460800 98.566734,160.538727 98.211533,160.616638 
	C97.719513,160.528900 97.227501,160.441177 96.365189,160.433456 
	C91.633476,160.451813 87.272049,160.390167 82.454361,160.421082 
	C77.607399,160.054962 73.216705,159.596237 68.411133,159.132919 
	C56.338448,155.075119 48.122696,147.515182 43.956619,135.340790 
	C43.290863,130.617508 42.773636,126.231529 42.171478,121.422096 
	C42.141338,116.969963 42.196125,112.941292 42.167038,108.455360 
	C42.136780,106.280319 42.190403,104.562523 42.162292,102.421707 
	C42.133430,100.281021 42.186306,98.563354 42.159172,96.422470 
	C42.130192,94.281532 42.181217,92.563828 42.154495,90.422546 
	C42.127922,87.954453 42.179092,85.909920 42.154984,83.432716 
	C42.187492,80.987625 42.295277,78.975220 42.410934,76.532150 
M148.779663,84.215248 
	C148.564774,81.483345 148.349884,78.751434 148.169510,75.195358 
	C146.777252,63.782997 138.412964,55.655926 126.127602,54.285011 
	C123.415520,54.290321 120.703438,54.295631 117.115143,54.146732 
	C114.739868,54.196022 112.364586,54.245312 109.125359,54.140717 
	C107.078438,54.191708 105.031525,54.242702 102.120155,54.142864 
	C100.077019,54.194202 98.033875,54.245541 95.126953,54.142197 
	C93.082336,54.191471 91.037712,54.240746 88.080299,54.133915 
	C83.385696,54.382446 78.691086,54.630981 73.216385,54.829025 
	C70.119980,56.170319 67.023575,57.511608 63.308800,59.107555 
	C61.513874,61.061768 59.718945,63.015984 57.396904,65.341637 
	C56.673729,66.896469 55.950554,68.451309 54.932594,70.740723 
	C54.598301,72.819954 54.264004,74.899193 53.520119,77.644806 
	C53.590809,79.769814 53.661495,81.894821 53.444744,84.878174 
	C53.557228,87.246506 53.669716,89.614838 53.466911,92.787743 
	C53.574051,94.202477 53.681187,95.617210 53.478130,97.843925 
	C53.583450,99.559113 53.688774,101.274307 53.340435,103.773094 
	C53.284832,105.851379 53.229225,107.929665 53.046227,110.899719 
	C53.087166,113.601189 53.128101,116.302658 53.041195,119.879021 
	C53.000370,126.924141 53.983185,133.730515 58.359859,139.539719 
	C64.850433,148.154709 73.887001,150.094803 84.879105,149.167969 
	C87.253654,149.112411 89.628212,149.056854 92.879372,149.162598 
	C95.253220,149.108246 97.627068,149.053894 100.824661,149.156921 
	C102.217155,149.104980 103.609642,149.053024 105.891640,149.152054 
	C108.593269,149.100128 111.294891,149.048218 114.844368,149.149734 
	C116.561996,149.099152 118.279625,149.048553 120.864326,149.145248 
	C122.906952,149.047668 124.949577,148.950089 127.730270,148.952576 
	C129.153244,148.575012 130.576218,148.197464 132.656021,147.832642 
	C134.143845,147.017700 135.631668,146.202759 137.775925,145.146301 
	C140.020218,142.832001 142.264511,140.517715 144.948868,137.716660 
	C145.925247,135.143402 146.901611,132.570145 148.080872,129.175858 
	C148.226440,125.126747 148.372025,121.077629 148.737625,116.184517 
	C148.669968,114.742905 148.602310,113.301292 148.723312,111.298119 
	C148.659088,110.913895 148.594849,110.529663 148.706085,109.433434 
	C148.642899,108.953026 148.579712,108.472626 148.724777,107.126152 
	C148.651108,104.759552 148.577438,102.392944 148.727264,99.167076 
	C148.652237,97.117813 148.577209,95.068550 148.723724,92.151642 
	C148.666473,89.785866 148.609222,87.420097 148.779663,84.215248 
z"/>
<path fill="#7758A2" opacity="1.000000" stroke="none" 
	d="
M98.356094,160.707962 
	C98.566734,160.538727 98.921936,160.460800 99.528404,160.504364 
	C99.353333,160.683640 98.926987,160.741470 98.356094,160.707962 
z"/>
<path fill="#7B59A3" opacity="1.000000" stroke="none" 
	d="
M84.002480,149.004333 
	C73.887001,150.094803 64.850433,148.154709 58.359859,139.539719 
	C53.983185,133.730515 53.000370,126.924141 53.458813,119.445518 
	C55.006660,119.598228 56.365322,119.952682 57.231663,120.806610 
	C65.584633,129.039932 73.877045,137.335297 82.115494,145.683273 
	C82.979301,146.558563 83.384506,147.886429 84.002480,149.004333 
z"/>
<path fill="#F27376" opacity="1.000000" stroke="none" 
	d="
M148.503769,100.026352 
	C148.577438,102.392944 148.651108,104.759552 148.292450,107.553375 
	C143.397186,103.977776 139.005081,99.891258 134.431427,96.019218 
	C132.907440,94.729012 130.918304,93.988274 129.002609,92.664474 
	C125.611801,83.478958 119.205421,77.772102 110.995132,73.967545 
	C110.624382,72.472420 110.243217,70.900757 109.280708,69.874084 
	C105.766251,66.125328 101.966148,62.643330 98.474892,58.874432 
	C97.331787,57.640423 96.801353,55.838882 95.990738,54.296879 
	C98.033875,54.245541 100.077019,54.194202 102.562965,54.561672 
	C103.622131,56.104370 104.019707,57.445492 104.887634,58.319595 
	C118.102898,71.628990 131.359375,84.897804 144.684433,98.097137 
	C145.648529,99.052147 147.216537,99.397522 148.503769,100.026352 
z"/>
<path fill="#8A56A1" opacity="1.000000" stroke="none" 
	d="
M84.440796,149.086151 
	C83.384506,147.886429 82.979301,146.558563 82.115494,145.683273 
	C73.877045,137.335297 65.584633,129.039932 57.231663,120.806610 
	C56.365322,119.952682 55.006660,119.598228 53.522736,119.008072 
	C53.128101,116.302658 53.087166,113.601189 53.449715,110.493835 
	C55.381832,111.039093 57.151497,111.746071 58.401169,112.979767 
	C68.914169,123.358566 79.371284,133.795166 89.723038,144.334381 
	C90.873871,145.506058 91.261299,147.427551 92.002762,149.001312 
	C89.628212,149.056854 87.253654,149.112411 84.440796,149.086151 
z"/>
<path fill="#A356A0" opacity="1.000000" stroke="none" 
	d="
M53.794094,102.989494 
	C53.688774,101.274307 53.583450,99.559113 53.936741,97.440094 
	C59.759777,102.020416 65.059250,107.077667 70.531326,111.940697 
	C72.020096,113.263763 74.028976,114.001564 76.011719,115.280785 
	C79.824051,119.340157 83.423820,123.126717 87.046768,127.263710 
	C92.091087,132.953949 97.193909,138.220673 102.079178,143.682022 
	C103.393288,145.151077 104.045883,147.211884 105.002136,149.001068 
	C103.609642,149.053024 102.217155,149.104980 100.378685,148.733612 
	C99.519814,147.609970 99.231644,146.785339 98.675789,146.227432 
	C84.870651,132.371506 71.052216,118.528664 57.172665,104.747421 
	C56.312580,103.893440 54.932335,103.563332 53.794094,102.989494 
z"/>
<path fill="#9755A0" opacity="1.000000" stroke="none" 
	d="
M53.567265,103.381294 
	C54.932335,103.563332 56.312580,103.893440 57.172665,104.747421 
	C71.052216,118.528664 84.870651,132.371506 98.675789,146.227432 
	C99.231644,146.785339 99.519814,147.609970 99.966812,148.654922 
	C97.627068,149.053894 95.253220,149.108246 92.441071,149.081955 
	C91.261299,147.427551 90.873871,145.506058 89.723038,144.334381 
	C79.371284,133.795166 68.914169,123.358566 58.401169,112.979767 
	C57.151497,111.746071 55.381832,111.039093 53.513412,110.047958 
	C53.229225,107.929665 53.284832,105.851379 53.567265,103.381294 
z"/>
<path fill="#F37E72" opacity="1.000000" stroke="none" 
	d="
M148.615509,99.596710 
	C147.216537,99.397522 145.648529,99.052147 144.684433,98.097137 
	C131.359375,84.897804 118.102898,71.628990 104.887634,58.319595 
	C104.019707,57.445492 103.622131,56.104370 102.995193,54.637085 
	C105.031525,54.242702 107.078438,54.191708 109.567139,54.560806 
	C115.030083,59.988697 120.051239,64.996506 125.114441,70.369186 
	C125.684937,75.405159 128.489319,77.612724 133.030151,78.323242 
	C135.778839,81.682625 138.332993,84.864922 141.262299,87.653076 
	C143.421768,89.708488 146.071121,91.249222 148.502182,93.019287 
	C148.577209,95.068550 148.652237,97.117813 148.615509,99.596710 
z"/>
<path fill="#ED6184" opacity="1.000000" stroke="none" 
	d="
M73.996483,54.879517 
	C78.691086,54.630981 83.385696,54.382446 88.539467,54.572685 
	C90.324913,57.167023 91.497993,59.437500 93.010277,61.453545 
	C95.905075,65.312653 98.992737,69.027092 101.577454,72.868576 
	C97.768288,73.547089 94.382042,74.158585 90.950806,74.440857 
	C87.161880,70.132408 83.345238,66.218277 79.702423,62.148540 
	C77.652290,59.858143 75.888992,57.311001 73.996483,54.879517 
z"/>
<path fill="#EA598E" opacity="1.000000" stroke="none" 
	d="
M73.606430,54.854271 
	C75.888992,57.311001 77.652290,59.858143 79.702423,62.148540 
	C83.345238,66.218277 87.161880,70.132408 90.642868,74.611092 
	C87.960472,76.523216 85.541016,77.935883 82.988602,79.018997 
	C76.546143,72.077271 70.236656,65.465080 63.927174,58.852898 
	C67.023575,57.511608 70.119980,56.170319 73.606430,54.854271 
z"/>
<path fill="#E65396" opacity="1.000000" stroke="none" 
	d="
M144.508804,138.203415 
	C142.264511,140.517715 140.020218,142.832001 137.394592,144.889862 
	C135.949646,143.196472 135.018295,141.634506 133.799149,140.344513 
	C128.911423,135.172714 123.934441,130.085251 119.146187,124.680267 
	C120.891411,122.934677 122.480919,121.475433 124.410583,120.048843 
	C126.393173,121.447052 128.104965,122.738197 129.665268,124.191917 
	C134.643372,128.829941 139.565231,133.528336 144.508804,138.203415 
z"/>
<path fill="#ED5E84" opacity="1.000000" stroke="none" 
	d="
M148.517593,117.028519 
	C148.372025,121.077629 148.226440,125.126747 147.644272,129.547852 
	C141.105835,123.874138 135.003998,117.828423 128.910980,111.396736 
	C129.387177,108.676430 129.854553,106.342110 130.667267,104.013153 
	C134.364151,106.867546 137.611557,109.853134 141.104279,112.517090 
	C143.391693,114.261742 146.034149,115.540878 148.517593,117.028519 
z"/>
<path fill="#E65396" opacity="1.000000" stroke="none" 
	d="
M63.617989,58.980225 
	C70.236656,65.465080 76.546143,72.077271 82.824165,79.275757 
	C81.354988,81.299759 79.917274,82.737450 78.140068,84.043076 
	C71.175056,77.597404 64.549538,71.283798 57.924019,64.970200 
	C59.718945,63.015984 61.513874,61.061768 63.617989,58.980225 
z"/>
<path fill="#EA598E" opacity="1.000000" stroke="none" 
	d="
M128.902161,111.782715 
	C135.003998,117.828423 141.105835,123.874138 147.542816,129.958374 
	C146.901611,132.570145 145.925247,135.143402 144.728836,137.960037 
	C139.565231,133.528336 134.643372,128.829941 129.665268,124.191917 
	C128.104965,122.738197 126.393173,121.447052 124.523956,119.730316 
	C125.832176,116.847000 127.367172,114.314857 128.902161,111.782715 
z"/>
<path fill="#F06981" opacity="1.000000" stroke="none" 
	d="
M148.627609,116.606522 
	C146.034149,115.540878 143.391693,114.261742 141.104279,112.517090 
	C137.611557,109.853134 134.364151,106.867546 130.610703,103.571838 
	C129.853149,99.748886 129.497467,96.372612 129.141800,92.996346 
	C130.918304,93.988274 132.907440,94.729012 134.431427,96.019218 
	C139.005081,99.891258 143.397186,103.977776 148.188324,107.986412 
	C148.579712,108.472626 148.642899,108.953026 148.488861,109.937546 
	C148.359299,110.914337 148.446976,111.387009 148.534653,111.859680 
	C148.602310,113.301292 148.669968,114.742905 148.627609,116.606522 
z"/>
<path fill="#F9A863" opacity="1.000000" stroke="none" 
	d="
M126.980698,54.607449 
	C138.412964,55.655926 146.777252,63.782997 147.775085,75.601059 
	C144.613251,74.336716 141.845810,72.666687 139.000580,70.647545 
	C136.946014,68.182373 134.969223,66.066315 132.957855,63.608154 
	C130.942429,60.379848 128.961563,57.493649 126.980698,54.607449 
z"/>
<path fill="#AB549E" opacity="1.000000" stroke="none" 
	d="
M105.446892,149.076569 
	C104.045883,147.211884 103.393288,145.151077 102.079178,143.682022 
	C97.193909,138.220673 92.091087,132.953949 87.409843,127.323959 
	C91.504219,128.248962 95.258705,129.464142 99.029449,131.044861 
	C101.755531,134.499741 104.500435,137.559235 107.164635,140.687469 
	C109.489166,143.416855 111.722755,146.223694 113.996521,148.996307 
	C111.294891,149.048218 108.593269,149.100128 105.446892,149.076569 
z"/>
<path fill="#F0677C" opacity="1.000000" stroke="none" 
	d="
M102.000359,72.801567 
	C98.992737,69.027092 95.905075,65.312653 93.010277,61.453545 
	C91.497993,59.437500 90.324913,57.167023 88.995865,54.650742 
	C91.037712,54.240746 93.082336,54.191471 95.558853,54.219536 
	C96.801353,55.838882 97.331787,57.640423 98.474892,58.874432 
	C101.966148,62.643330 105.766251,66.125328 109.280708,69.874084 
	C110.243217,70.900757 110.624382,72.472420 110.604584,73.955048 
	C107.291351,73.677917 104.645851,73.239738 102.000359,72.801567 
z"/>
<path fill="#C75FA4" opacity="1.000000" stroke="none" 
	d="
M53.732182,84.019829 
	C53.661495,81.894821 53.590809,79.769814 54.095085,77.323517 
	C56.393368,78.117661 58.272457,79.052803 59.811050,80.382057 
	C64.584953,84.506454 69.229485,88.780594 73.934372,93.379768 
	C73.569603,95.515091 73.194679,97.267265 72.465958,99.007568 
	C67.829552,95.248993 63.595680,91.444290 59.239876,87.784714 
	C57.545570,86.361214 55.576237,85.265076 53.732182,84.019829 
z"/>
<path fill="#B7549E" opacity="1.000000" stroke="none" 
	d="
M53.588463,84.449005 
	C55.576237,85.265076 57.545570,86.361214 59.239876,87.784714 
	C63.595680,91.444290 67.829552,95.248993 72.500473,99.449463 
	C72.898727,102.270241 72.908646,104.637253 72.579361,106.965164 
	C67.913284,102.870682 63.678959,98.708923 59.207703,94.819527 
	C57.710026,93.516754 55.607986,92.908752 53.782200,91.983170 
	C53.669716,89.614838 53.557228,87.246506 53.588463,84.449005 
z"/>
<path fill="#DD539C" opacity="1.000000" stroke="none" 
	d="
M57.660461,65.155914 
	C64.549538,71.283798 71.175056,77.597404 77.985626,84.352722 
	C77.180954,86.328758 76.191223,87.863083 75.055008,89.067688 
	C72.266281,85.986107 69.728523,83.123444 66.956436,80.509293 
	C63.139542,76.909843 59.145515,73.498222 55.227375,70.006142 
	C55.950554,68.451309 56.673729,66.896469 57.660461,65.155914 
z"/>
<path fill="#CF529C" opacity="1.000000" stroke="none" 
	d="
M55.079987,70.373428 
	C59.145515,73.498222 63.139542,76.909843 66.956436,80.509293 
	C69.728523,83.123444 72.266281,85.986107 75.002289,89.379799 
	C74.705444,91.013298 74.314835,92.004959 73.924225,92.996620 
	C69.229485,88.780594 64.584953,84.506454 59.811050,80.382057 
	C58.272457,79.052803 56.393368,78.117661 54.299881,76.990326 
	C54.264004,74.899193 54.598301,72.819954 55.079987,70.373428 
z"/>
<path fill="#DD539C" opacity="1.000000" stroke="none" 
	d="
M118.990471,124.966606 
	C123.934441,130.085251 128.911423,135.172714 133.799149,140.344513 
	C135.018295,141.634506 135.949646,143.196472 137.066376,145.010620 
	C135.631668,146.202759 134.143845,147.017700 132.322372,147.474274 
	C131.633728,146.229141 131.509460,145.110428 130.887665,144.491882 
	C125.312149,138.945633 119.649101,133.487350 114.213997,127.750839 
	C115.940964,126.654503 117.465714,125.810555 118.990471,124.966606 
z"/>
<path fill="#C2529D" opacity="1.000000" stroke="none" 
	d="
M126.992203,148.852524 
	C124.949577,148.950089 122.906952,149.047668 120.397301,148.727203 
	C116.727020,144.813797 113.439537,141.390808 110.350815,137.796997 
	C108.368950,135.491028 106.679932,132.933380 105.178711,130.355560 
	C107.329002,129.866165 109.160210,129.509735 110.997879,129.509186 
	C112.174644,131.582596 113.189034,133.435898 114.544464,134.992172 
	C118.622421,139.674377 122.833221,144.240891 126.992203,148.852524 
z"/>
<path fill="#CF529C" opacity="1.000000" stroke="none" 
	d="
M127.361237,148.902557 
	C122.833221,144.240891 118.622421,139.674377 114.544464,134.992172 
	C113.189034,133.435898 112.174644,131.582596 111.293350,129.373001 
	C112.392174,128.588348 113.201981,128.295776 114.011787,128.003220 
	C119.649101,133.487350 125.312149,138.945633 130.887665,144.491882 
	C131.509460,145.110428 131.633728,146.229141 131.993958,147.467896 
	C130.576218,148.197464 129.153244,148.575012 127.361237,148.902557 
z"/>
<path fill="#AB549E" opacity="1.000000" stroke="none" 
	d="
M53.624557,92.385452 
	C55.607986,92.908752 57.710026,93.516754 59.207703,94.819527 
	C63.678959,98.708923 67.913284,102.870682 72.729492,107.293747 
	C74.078941,110.110275 74.939049,112.559120 75.799156,115.007973 
	C74.028976,114.001564 72.020096,113.263763 70.531326,111.940697 
	C65.059250,107.077667 59.759777,102.020416 54.091839,97.034103 
	C53.681187,95.617210 53.574051,94.202477 53.624557,92.385452 
z"/>
<path fill="#F5896A" opacity="1.000000" stroke="none" 
	d="
M125.072388,70.004311 
	C120.051239,64.996506 115.030083,59.988697 109.999115,54.637749 
	C112.364586,54.245312 114.739868,54.196022 117.604691,54.544285 
	C121.066467,58.642349 124.038712,62.342861 126.901840,66.339249 
	C126.219292,67.758179 125.645836,68.881248 125.072388,70.004311 
z"/>
<path fill="#F5896A" opacity="1.000000" stroke="none" 
	d="
M148.612946,92.585464 
	C146.071121,91.249222 143.421768,89.708488 141.262299,87.653076 
	C138.332993,84.864922 135.778839,81.682625 133.303558,78.163605 
	C134.666504,77.092957 135.789658,76.528084 137.262848,76.004814 
	C141.259232,79.049049 144.905609,82.051682 148.551971,85.054321 
	C148.609222,87.420097 148.666473,89.785866 148.612946,92.585464 
z"/>
<path fill="#B7549E" opacity="1.000000" stroke="none" 
	d="
M104.859634,130.488541 
	C106.679932,132.933380 108.368950,135.491028 110.350815,137.796997 
	C113.439537,141.390808 116.727020,144.813797 119.963760,148.653564 
	C118.279625,149.048553 116.561996,149.099152 114.420441,149.073029 
	C111.722755,146.223694 109.489166,143.416855 107.164635,140.687469 
	C104.500435,137.559235 101.755531,134.499741 99.448952,131.030884 
	C101.521347,130.597107 103.190491,130.542816 104.859634,130.488541 
z"/>
<path fill="#F79365" opacity="1.000000" stroke="none" 
	d="
M127.010948,66.043373 
	C124.038712,62.342861 121.066467,58.642349 118.042793,54.621391 
	C120.703438,54.295631 123.415520,54.290321 126.554153,54.446228 
	C128.961563,57.493649 130.942429,60.379848 132.600372,63.652344 
	C130.521957,64.706879 128.766449,65.375130 127.010948,66.043373 
z"/>
<path fill="#F79E76" opacity="1.000000" stroke="none" 
	d="
M148.665817,84.634781 
	C144.905609,82.051682 141.259232,79.049049 137.412689,75.699615 
	C137.834473,73.900764 138.456436,72.448708 139.078384,70.996651 
	C141.845810,72.666687 144.613251,74.336716 147.757843,76.013138 
	C148.349884,78.751434 148.564774,81.483345 148.665817,84.634781 
z"/>
<path fill="#F27376" opacity="1.000000" stroke="none" 
	d="
M148.628983,111.578903 
	C148.446976,111.387009 148.359299,110.914337 148.401123,110.293549 
	C148.594849,110.529663 148.659088,110.913895 148.628983,111.578903 
z"/>
<path fill="#FDFBFC" opacity="1.000000" stroke="none" 
	d="
M105.178711,130.355560 
	C103.190491,130.542816 101.521347,130.597107 99.432701,130.665359 
	C95.258705,129.464142 91.504219,128.248962 87.386658,126.973526 
	C83.423820,123.126717 79.824051,119.340157 76.011719,115.280785 
	C74.939049,112.559120 74.078941,110.110275 73.068695,107.332840 
	C72.908646,104.637253 72.898727,102.270241 72.854279,99.461334 
	C73.194679,97.267265 73.569603,95.515091 73.934372,93.379768 
	C74.314835,92.004959 74.705444,91.013298 75.148773,89.709518 
	C76.191223,87.863083 77.180954,86.328758 78.325119,84.484787 
	C79.917274,82.737450 81.354988,81.299759 82.957138,79.605301 
	C85.541016,77.935883 87.960472,76.523216 90.687851,74.940323 
	C94.382042,74.158585 97.768288,73.547089 101.577454,72.868576 
	C104.645851,73.239738 107.291351,73.677917 110.327393,74.128593 
	C119.205421,77.772102 125.611801,83.478958 129.002609,92.664474 
	C129.497467,96.372612 129.853149,99.748886 130.265381,103.566467 
	C129.854553,106.342110 129.387177,108.676430 128.910980,111.396736 
	C127.367172,114.314857 125.832176,116.847000 124.183807,119.697662 
	C122.480919,121.475433 120.891411,122.934677 119.146187,124.680267 
	C117.465714,125.810555 115.940964,126.654503 114.213997,127.750839 
	C113.201981,128.295776 112.392174,128.588348 111.286896,129.017120 
	C109.160210,129.509735 107.329002,129.866165 105.178711,130.355560 
M83.205833,103.747879 
	C85.451866,114.238770 91.514236,119.743675 101.773224,120.044975 
	C103.515800,119.696274 105.258385,119.347572 107.708862,118.996841 
	C109.804276,117.655937 111.899681,116.315033 114.623550,114.706070 
	C116.225853,111.499580 117.828163,108.293083 119.777122,104.390831 
	C122.172409,91.757538 108.765457,80.428688 97.261688,83.958084 
	C94.821251,85.254074 92.380814,86.550072 89.316589,88.113937 
	C87.831657,90.319237 86.346718,92.524544 84.351898,95.321617 
	C84.002701,97.879417 83.653496,100.437210 83.205833,103.747879 
z"/>
<path fill="#FCFAFB" opacity="1.000000" stroke="none" 
	d="
M139.000580,70.647545 
	C138.456436,72.448708 137.834473,73.900764 137.062668,75.658020 
	C135.789658,76.528084 134.666504,77.092957 133.269928,77.817459 
	C128.489319,77.612724 125.684937,75.405159 125.114441,70.369186 
	C125.645836,68.881248 126.219292,67.758179 126.901840,66.339249 
	C128.766449,65.375130 130.521957,64.706879 132.634949,63.994446 
	C134.969223,66.066315 136.946014,68.182373 139.000580,70.647545 
z"/>
<path fill="#E95790" opacity="1.000000" stroke="none" 
	d="
M89.940376,87.846062 
	C92.380814,86.550072 94.821251,85.254074 97.664108,84.316437 
	C104.278801,91.160393 110.465637,97.670860 116.744171,104.091667 
	C117.347641,104.708817 118.521431,104.768257 119.430473,105.086594 
	C117.828163,108.293083 116.225853,111.499580 114.275856,114.497452 
	C107.112022,107.185745 100.255287,100.120827 93.512825,92.948479 
	C92.105392,91.451302 91.120171,89.557228 89.940376,87.846062 
z"/>
<path fill="#E25199" opacity="1.000000" stroke="none" 
	d="
M89.628479,87.979996 
	C91.120171,89.557228 92.105392,91.451302 93.512825,92.948479 
	C100.255287,100.120827 107.112022,107.185745 113.961624,114.631485 
	C111.899681,116.315033 109.804276,117.655937 107.320724,118.653320 
	C105.695503,116.780350 104.558098,115.155731 103.204208,113.737823 
	C97.123680,107.369728 90.981636,101.060379 84.861786,94.729843 
	C86.346718,92.524544 87.831657,90.319237 89.628479,87.979996 
z"/>
<path fill="#EC5F8B" opacity="1.000000" stroke="none" 
	d="
M119.603798,104.738708 
	C118.521431,104.768257 117.347641,104.708817 116.744171,104.091667 
	C110.465637,97.670860 104.278801,91.160393 98.033035,84.328766 
	C108.765457,80.428688 122.172409,91.757538 119.603798,104.738708 
z"/>
<path fill="#D7529C" opacity="1.000000" stroke="none" 
	d="
M84.606842,95.025726 
	C90.981636,101.060379 97.123680,107.369728 103.204208,113.737823 
	C104.558098,115.155731 105.695503,116.780350 106.966766,118.654335 
	C105.258385,119.347572 103.515800,119.696274 101.348656,119.638016 
	C96.106468,114.154900 91.333199,109.035004 86.420464,104.052635 
	C85.732162,103.354568 84.359932,103.330872 83.304291,102.995010 
	C83.653496,100.437210 84.002701,97.879417 84.606842,95.025726 
z"/>
<path fill="#CF529C" opacity="1.000000" stroke="none" 
	d="
M83.255066,103.371445 
	C84.359932,103.330872 85.732162,103.354568 86.420464,104.052635 
	C91.333199,109.035004 96.106468,114.154900 100.961929,119.568321 
	C91.514236,119.743675 85.451866,114.238770 83.255066,103.371445 
z"/>
</svg>