<svg version="1.1" id="Layer_1" xmlns="http://www.w3.org/2000/svg" xmlns:xlink="http://www.w3.org/1999/xlink" x="0px" y="0px"
	 width="100%" viewBox="0 0 201 201" enable-background="new 0 0 201 201" xml:space="preserve">
<path fill="#FDFDFE" opacity="1.000000" stroke="none" 
	d="
M202.000000,115.000000 
	C202.000000,143.967102 202.000000,172.934204 202.000000,201.950653 
	C135.108932,201.950653 68.217819,201.950653 1.000000,201.950653 
	C1.000000,169.646500 1.000000,137.291916 1.379475,104.670639 
	C2.229136,109.270149 2.699322,114.136337 3.103499,119.408188 
	C4.414638,124.542419 5.791786,129.270981 7.109362,134.375488 
	C8.326685,137.845901 9.603581,140.940369 10.938236,144.400375 
	C13.626122,149.190506 16.256250,153.615082 18.945301,158.391235 
	C20.070604,160.343521 20.927340,162.146835 22.242208,163.507431 
	C26.385990,167.795334 30.701653,171.917130 35.087788,176.409637 
	C40.929024,180.936325 46.633259,185.156586 52.591393,189.639832 
	C63.186024,195.293991 74.004227,199.230789 85.873589,200.964859 
	C85.873589,186.782272 85.873589,172.892456 85.953178,158.539764 
	C86.032768,149.096771 86.032768,140.116669 86.032768,131.135025 
	C82.912827,131.135025 80.458206,131.135025 77.540863,131.057251 
	C71.815643,130.979492 66.553162,130.979492 60.750248,130.979492 
	C60.750248,127.590965 60.750248,124.797615 60.830658,121.541847 
	C60.911064,114.824425 60.911064,108.569412 60.911064,101.826157 
	C69.522972,101.826157 77.566666,101.826157 86.631386,101.826157 
	C86.631386,91.925674 86.631386,82.515160 86.751205,72.758987 
	C87.530975,64.616028 90.889259,57.943676 95.558495,51.705067 
	C95.644661,51.628185 95.765579,51.431416 96.021820,51.275414 
	C101.852112,48.037697 107.426147,44.955986 113.417892,41.906075 
	C120.556862,41.629784 127.278137,41.321690 134.386566,41.154953 
	C136.538803,41.528923 138.299072,41.910145 140.069824,41.967480 
	C146.497116,42.175598 146.681381,42.337933 146.713272,48.630920 
	C146.724030,50.754261 146.865356,52.876945 146.849380,55.451359 
	C146.735184,58.233700 146.514664,60.585342 146.748932,62.890759 
	C147.117935,66.521736 145.946518,68.042938 142.067902,67.784683 
	C138.098068,67.520340 134.069473,67.692749 130.096390,68.027473 
	C124.157631,68.527786 119.000893,72.262306 118.463226,77.894829 
	C117.716263,85.719841 118.275360,93.669518 118.275360,101.665146 
	C124.741196,101.665146 130.872208,101.665146 137.449432,101.749298 
	C140.173706,101.833450 142.451752,101.833450 145.293991,101.833450 
	C144.202103,109.328453 143.205978,116.166222 142.118866,123.402466 
	C141.019089,126.245522 140.010315,128.690094 138.538422,131.057007 
	C131.377670,130.979340 124.680008,130.979340 118.041695,130.979340 
	C118.041695,138.479553 118.041695,145.239853 117.952225,152.459015 
	C117.922302,157.611923 117.981865,162.305969 117.950943,167.459473 
	C117.920723,172.946106 117.980988,177.973282 117.950806,183.461212 
	C117.860359,189.517242 117.860359,195.112518 117.860359,201.319427 
	C120.951942,200.485123 123.495766,199.798645 126.440094,199.059937 
	C151.437241,192.843719 170.833130,179.110794 185.100418,158.292862 
	C191.804626,148.510529 197.166382,137.972656 199.451141,125.833427 
	C200.526627,122.084923 201.263306,118.542465 202.000000,115.000000 
z"/>
<path fill="#3E6CB1" opacity="1.000000" stroke="none" 
	d="
M3.169509,119.002518 
	C2.699322,114.136337 2.229136,109.270149 1.379475,104.201981 
	C1.000000,102.933327 1.000000,101.866661 1.366809,100.216553 
	C1.878136,97.423576 2.022655,95.214035 2.521405,92.997711 
	C4.366424,92.044586 6.092477,91.334282 7.313459,90.117271 
	C35.008915,62.511780 62.664776,34.866447 90.250114,7.151004 
	C91.537582,5.857460 92.102928,3.845184 93.393631,2.100670 
	C95.188454,1.689133 96.594231,1.344567 98.000000,1.000000 
	C100.370560,1.000000 102.741112,1.000000 105.755074,1.377829 
	C110.932770,2.225665 115.467064,2.695672 119.958420,3.506393 
	C118.490707,5.851008 117.322334,8.112991 115.603363,9.820765 
	C79.840805,45.350529 44.027752,80.829536 8.155148,116.248161 
	C6.854606,117.532249 4.847386,118.100601 3.169509,119.002518 
z"/>
<path fill="#FFFFFF" opacity="1.000000" stroke="none" 
	d="
M97.531342,1.000000 
	C96.594231,1.344567 95.188454,1.689133 92.960617,2.029664 
	C89.719910,2.346894 87.304291,2.693179 84.882141,2.985329 
	C70.158401,4.761248 56.945972,10.732985 44.882530,18.841749 
	C29.498499,29.182539 17.999491,43.161461 10.386337,60.165310 
	C5.707967,70.614380 2.437184,81.440201 2.167173,93.004501 
	C2.022655,95.214035 1.878136,97.423576 1.366809,99.816559 
	C1.000000,67.073814 1.000000,34.147629 1.000000,1.000000 
	C33.020554,1.000000 65.041618,1.000000 97.531342,1.000000 
z"/>
<path fill="#FFFFFF" opacity="1.000000" stroke="none" 
	d="
M120.001358,3.165679 
	C115.467064,2.695672 110.932770,2.225665 106.199234,1.377829 
	C137.923737,1.000000 169.847473,1.000000 202.000000,1.000000 
	C202.000000,30.020494 202.000000,59.041588 201.691254,88.441422 
	C201.199463,88.214439 201.016418,87.608711 200.905243,86.591606 
	C199.689911,81.105522 198.402695,76.030823 197.066437,70.625839 
	C196.956299,69.856117 196.895187,69.416679 196.857834,68.715836 
	C196.599945,68.262672 196.318283,68.070915 196.021698,67.495781 
	C192.687790,60.705570 189.368805,54.298733 186.023041,47.533825 
	C181.014557,41.063919 176.032883,34.952087 170.914276,28.529053 
	C165.530029,24.438040 160.282684,20.658226 154.872681,16.571911 
	C150.140442,13.896513 145.570892,11.527618 140.644348,9.084961 
	C138.524551,8.395920 136.761765,7.780640 134.652802,6.983770 
	C129.538208,5.590013 124.769783,4.377846 120.001358,3.165679 
z"/>
<path fill="#3C4992" opacity="1.000000" stroke="none" 
	d="
M202.000000,114.539368 
	C201.263306,118.542465 200.526627,122.084923 199.098831,125.852127 
	C197.338242,126.818398 196.126801,127.417648 195.220016,128.322266 
	C172.963089,150.525909 150.726715,172.750229 128.543289,195.027237 
	C127.446953,196.128204 126.862434,197.738846 126.039589,199.112152 
	C123.495766,199.798645 120.951942,200.485123 117.860359,201.319427 
	C117.860359,195.112518 117.860359,189.517242 118.300171,183.424530 
	C120.873421,181.404572 123.267586,180.144089 125.100868,178.319916 
	C149.065643,154.474258 172.937897,130.535645 196.888474,106.675659 
	C198.356216,105.213455 200.285477,104.214508 202.000000,103.000000 
	C202.000000,106.692909 202.000000,110.385818 202.000000,114.539368 
z"/>
<path fill="#3D4C95" opacity="1.000000" stroke="none" 
	d="
M202.000000,102.535355 
	C200.285477,104.214508 198.356216,105.213455 196.888474,106.675659 
	C172.937897,130.535645 149.065643,154.474258 125.100868,178.319916 
	C123.267586,180.144089 120.873421,181.404572 118.390610,182.963776 
	C117.980988,177.973282 117.920723,172.946106 118.300293,167.422882 
	C120.398804,165.878937 122.320045,165.094772 123.677124,163.743866 
	C147.457901,140.071274 171.165817,116.325485 194.903778,92.609833 
	C196.827454,90.687973 198.854401,88.869499 200.833374,87.002991 
	C201.016418,87.608711 201.199463,88.214439 201.691254,88.910080 
	C202.000000,93.356903 202.000000,97.713799 202.000000,102.535355 
z"/>
<path fill="#3E67AD" opacity="1.000000" stroke="none" 
	d="
M119.958420,3.506393 
	C124.769783,4.377846 129.538208,5.590013 134.610870,7.316650 
	C134.008575,8.988904 133.197998,10.239603 132.180801,11.290257 
	C120.659958,23.190115 109.073341,35.026669 97.621376,46.992195 
	C96.586479,48.073502 96.364876,49.933201 95.765579,51.431416 
	C95.765579,51.431416 95.644661,51.628185 95.220467,51.482071 
	C91.883896,53.370926 88.601692,55.033131 86.116486,57.498684 
	C61.909687,81.514084 37.860897,105.688705 13.674570,129.724869 
	C11.871111,131.517120 9.354190,132.591461 7.168936,133.999527 
	C5.791786,129.270981 4.414638,124.542419 3.103499,119.408188 
	C4.847386,118.100601 6.854606,117.532249 8.155148,116.248161 
	C44.027752,80.829536 79.840805,45.350529 115.603363,9.820765 
	C117.322334,8.112991 118.490707,5.851008 119.958420,3.506393 
z"/>
<path fill="#3E5AA1" opacity="1.000000" stroke="none" 
	d="
M171.051178,28.840252 
	C176.032883,34.952087 181.014557,41.063919 185.886444,47.851929 
	C184.354126,50.349033 183.099609,52.336861 181.482651,53.964649 
	C167.751999,67.787399 153.903595,81.493729 140.248840,95.390549 
	C138.671799,96.995544 138.061646,99.550575 137.003220,101.665146 
	C130.872208,101.665146 124.741196,101.665146 118.275360,101.665146 
	C118.275360,93.669518 117.716263,85.719841 118.463226,77.894829 
	C119.000893,72.262306 124.157631,68.527786 130.096390,68.027473 
	C134.069473,67.692749 138.098068,67.520340 142.067902,67.784683 
	C145.946518,68.042938 147.117935,66.521736 146.748932,62.890759 
	C146.514664,60.585342 146.735184,58.233700 147.205750,55.418861 
	C148.840958,54.363346 150.270874,54.047329 151.163269,53.178932 
	C157.210602,47.294243 163.293655,41.430389 169.006638,35.229488 
	C170.380829,33.737923 170.405746,31.003242 171.051178,28.840252 
z"/>
<path fill="#3D4E97" opacity="1.000000" stroke="none" 
	d="
M200.905243,86.591606 
	C198.854401,88.869499 196.827454,90.687973 194.903778,92.609833 
	C171.165817,116.325485 147.457901,140.071274 123.677124,163.743866 
	C122.320045,165.094772 120.398804,165.878937 118.390778,166.963440 
	C117.981865,162.305969 117.922302,157.611923 118.298241,152.421143 
	C126.911011,146.380173 134.185226,139.955521 139.001526,131.134674 
	C140.010315,128.690094 141.019089,126.245522 142.448730,123.357361 
	C144.263382,121.758842 145.758881,120.705940 147.035461,119.433434 
	C162.140091,104.377129 177.192169,89.268028 192.326553,74.241798 
	C193.678040,72.899986 195.507828,72.039925 197.115479,70.956123 
	C198.402695,76.030823 199.689911,81.105522 200.905243,86.591606 
z"/>
<path fill="#3D539B" opacity="1.000000" stroke="none" 
	d="
M197.066437,70.625839 
	C195.507828,72.039925 193.678040,72.899986 192.326553,74.241798 
	C177.192169,89.268028 162.140091,104.377129 147.035461,119.433434 
	C145.758881,120.705940 144.263382,121.758842 142.539719,122.958878 
	C143.205978,116.166222 144.202103,109.328453 145.293991,101.833450 
	C142.451752,101.833450 140.173706,101.833450 137.449432,101.749298 
	C138.061646,99.550575 138.671799,96.995544 140.248840,95.390549 
	C153.903595,81.493729 167.751999,67.787399 181.482651,53.964649 
	C183.099609,52.336861 184.354126,50.349033 185.913239,48.210003 
	C189.368805,54.298733 192.687790,60.705570 196.091187,67.720207 
	C196.318649,68.621956 196.538147,68.838364 196.834076,68.977249 
	C196.895187,69.416679 196.956299,69.856117 197.066437,70.625839 
z"/>
<path fill="#3F63A9" opacity="1.000000" stroke="none" 
	d="
M86.631386,73.104652 
	C86.631386,82.515160 86.631386,91.925674 86.631386,101.826157 
	C77.566666,101.826157 69.522972,101.826157 60.911064,101.826157 
	C60.911064,108.569412 60.911064,114.824425 60.482086,121.548134 
	C58.456020,123.090584 56.642082,123.944679 55.296440,125.273125 
	C45.261021,135.180344 35.394287,145.259857 25.267935,155.072021 
	C23.676456,156.614105 21.039774,157.077499 18.886375,158.039658 
	C16.256250,153.615082 13.626122,149.190506 11.311472,144.387268 
	C13.374555,142.882446 15.388212,142.023819 16.829828,140.590012 
	C38.245274,119.290565 59.562237,97.892059 80.990547,76.605637 
	C82.520416,75.085892 84.735115,74.255547 86.631386,73.104652 
z"/>
<path fill="#3D589F" opacity="1.000000" stroke="none" 
	d="
M52.337494,189.376862 
	C46.633259,185.156586 40.929024,180.936325 35.237755,176.100739 
	C36.766613,174.223969 38.389263,173.069824 39.781616,171.684250 
	C51.773720,159.750549 63.757107,147.807480 75.635361,135.760971 
	C76.795425,134.584473 77.231468,132.694061 78.003586,131.135025 
	C80.458206,131.135025 82.912827,131.135025 86.032768,131.135025 
	C86.032768,140.116669 86.032768,149.096771 85.596375,158.544067 
	C83.441780,160.172424 81.515961,161.116653 80.039177,162.530075 
	C70.749718,171.420944 61.560112,180.416153 52.337494,189.376862 
z"/>
<path fill="#3E5DA4" opacity="1.000000" stroke="none" 
	d="
M77.540855,131.057251 
	C77.231468,132.694061 76.795425,134.584473 75.635361,135.760971 
	C63.757107,147.807480 51.773720,159.750549 39.781616,171.684250 
	C38.389263,173.069824 36.766613,174.223969 35.100761,175.794312 
	C30.701653,171.917130 26.385990,167.795334 22.242208,163.507431 
	C20.927340,162.146835 20.070604,160.343521 18.945301,158.391235 
	C21.039774,157.077499 23.676456,156.614105 25.267935,155.072021 
	C35.394287,145.259857 45.261021,135.180344 55.296440,125.273125 
	C56.642082,123.944679 58.456020,123.090584 60.401676,122.010544 
	C60.750248,124.797615 60.750248,127.590965 60.750248,130.979492 
	C66.553162,130.979492 71.815643,130.979492 77.540855,131.057251 
z"/>
<path fill="#3C458F" opacity="1.000000" stroke="none" 
	d="
M126.440094,199.059937 
	C126.862434,197.738846 127.446953,196.128204 128.543289,195.027237 
	C150.726715,172.750229 172.963089,150.525909 195.220016,128.322266 
	C196.126801,127.417648 197.338242,126.818398 198.760040,126.058167 
	C197.166382,137.972656 191.804626,148.510529 185.100418,158.292862 
	C170.833130,179.110794 151.437241,192.843719 126.440094,199.059937 
z"/>
<path fill="#3F66AB" opacity="1.000000" stroke="none" 
	d="
M86.751205,72.758987 
	C84.735115,74.255547 82.520416,75.085892 80.990547,76.605637 
	C59.562237,97.892059 38.245274,119.290565 16.829828,140.590012 
	C15.388212,142.023819 13.374555,142.882446 11.253714,144.021698 
	C9.603581,140.940369 8.326685,137.845901 7.109364,134.375488 
	C9.354190,132.591461 11.871111,131.517120 13.674570,129.724869 
	C37.860897,105.688705 61.909687,81.514084 86.116486,57.498684 
	C88.601692,55.033131 91.883896,53.370926 95.134300,51.558952 
	C90.889259,57.943676 87.530975,64.616028 86.751205,72.758987 
z"/>
<path fill="#3D529A" opacity="1.000000" stroke="none" 
	d="
M52.591389,189.639832 
	C61.560112,180.416153 70.749718,171.420944 80.039177,162.530075 
	C81.515961,161.116653 83.441780,160.172424 85.516785,159.006958 
	C85.873589,172.892456 85.873589,186.782272 85.873589,200.964859 
	C74.004227,199.230789 63.186024,195.293991 52.591389,189.639832 
z"/>
<path fill="#3E5DA4" opacity="1.000000" stroke="none" 
	d="
M170.914276,28.529055 
	C170.405746,31.003242 170.380829,33.737923 169.006638,35.229488 
	C163.293655,41.430389 157.210602,47.294243 151.163269,53.178932 
	C150.270874,54.047329 148.840958,54.363346 147.303375,54.967430 
	C146.865356,52.876945 146.724030,50.754261 146.713272,48.630920 
	C146.681381,42.337933 146.497116,42.175598 140.069824,41.967480 
	C138.299072,41.910145 136.538803,41.528923 134.420517,40.809410 
	C139.984039,34.109272 145.943054,27.935354 151.784775,21.652374 
	C153.080704,20.258554 153.962738,18.479887 155.035339,16.878414 
	C160.282684,20.658226 165.530029,24.438040 170.914276,28.529055 
z"/>
<path fill="#3E64AA" opacity="1.000000" stroke="none" 
	d="
M154.872681,16.571913 
	C153.962738,18.479887 153.080704,20.258554 151.784775,21.652374 
	C145.943054,27.935354 139.984039,34.109272 134.033356,40.668049 
	C127.278137,41.321690 120.556862,41.629784 113.458321,41.562668 
	C114.369682,39.309345 115.421318,37.200294 116.987686,35.592815 
	C124.023232,28.372574 131.263153,21.351210 138.280609,14.113863 
	C139.545532,12.809300 140.112244,10.827725 141.001328,9.158720 
	C145.570892,11.527618 150.140442,13.896513 154.872681,16.571913 
z"/>
<path fill="#3F66AB" opacity="1.000000" stroke="none" 
	d="
M140.644348,9.084957 
	C140.112244,10.827725 139.545532,12.809300 138.280609,14.113863 
	C131.263153,21.351210 124.023232,28.372574 116.987686,35.592815 
	C115.421318,37.200294 114.369682,39.309345 113.040619,41.530865 
	C107.426147,44.955986 101.852112,48.037697 96.021820,51.275414 
	C96.364876,49.933201 96.586479,48.073502 97.621376,46.992195 
	C109.073341,35.026669 120.659958,23.190115 132.180801,11.290257 
	C133.197998,10.239603 134.008575,8.988904 134.957031,7.498240 
	C136.761765,7.780640 138.524551,8.395920 140.644348,9.084957 
z"/>
<path fill="#3D529A" opacity="1.000000" stroke="none" 
	d="
M138.538422,131.057007 
	C134.185226,139.955521 126.911011,146.380173 118.387711,151.962296 
	C118.041695,145.239853 118.041695,138.479553 118.041695,130.979340 
	C124.680008,130.979340 131.377670,130.979340 138.538422,131.057007 
z"/>
<path fill="#3F71B6" opacity="1.000000" stroke="none" 
	d="
M2.521405,92.997711 
	C2.437184,81.440201 5.707967,70.614380 10.386337,60.165310 
	C17.999491,43.161461 29.498499,29.182539 44.882530,18.841749 
	C56.945972,10.732985 70.158401,4.761248 84.882141,2.985329 
	C87.304291,2.693179 89.719910,2.346894 92.571564,2.096634 
	C92.102928,3.845184 91.537582,5.857460 90.250114,7.151004 
	C62.664776,34.866447 35.008915,62.511780 7.313459,90.117271 
	C6.092477,91.334282 4.366424,92.044586 2.521405,92.997711 
z"/>
<path fill="#3D4E97" opacity="1.000000" stroke="none" 
	d="
M196.857849,68.715836 
	C196.538147,68.838364 196.318649,68.621956 196.106110,68.103584 
	C196.318283,68.070915 196.599945,68.262672 196.857849,68.715836 
z"/>
</svg>